<?xml version="1.0" encoding="utf-8"?><svg xmlns="http://www.w3.org/2000/svg" xmlns:xlink="http://www.w3.org/1999/xlink"><symbol fill="none" viewBox="0 0 32 32" id="agile" xmlns="http://www.w3.org/2000/svg"><g clip-path="url(#aaa)"><path fill-rule="evenodd" clip-rule="evenodd" d="M32 18.5C32 25.956 25.956 32 18.5 32c-.12 0-.241-.002-.361-.005A1.996 1.996 0 0 1 18 32H2a2 2 0 0 1-2-2v-3a2 2 0 0 1 2-2h4.665A13.44 13.44 0 0 1 5 18.5C5 11.044 11.044 5 18.5 5S32 11.044 32 18.5Zm-7 0a6.5 6.5 0 1 1-13 0 6.5 6.5 0 0 1 13 0Z" fill="#3AE7BC"/><path d="M0 8a8 8 0 1 1 16 0A8 8 0 0 1 0 8Z" fill="#FF7188"/><path fill-rule="evenodd" clip-rule="evenodd" d="M15.542 5.325A8 8 0 0 1 5.325 15.541 13.519 13.519 0 0 1 15.542 5.326Z" fill="#2E57DB"/></g><defs><clipPath id="aaa"><path fill="#fff" d="M0 0h32v32H0z"/></clipPath></defs></symbol><symbol fill="none" viewBox="0 0 32 32" id="calendar" xmlns="http://www.w3.org/2000/svg"><path d="M10 3a3 3 0 0 1 3-3h16a3 3 0 0 1 3 3v26a3 3 0 0 1-3 3H13a3 3 0 0 1-3-3V3Z" fill="#3AE7BC"/><path fill-rule="evenodd" clip-rule="evenodd" d="M13 6a4 4 0 1 1 0 8H4a4 4 0 0 1 0-8h9Zm9 12a4 4 0 1 1 0 8H7a4 4 0 0 1 0-8h15Z" fill="#FF7188"/><path fill-rule="evenodd" clip-rule="evenodd" d="M10 26h12a4 4 0 0 0 0-8H10v8Zm0-12h3a4 4 0 0 0 0-8h-3v8Z" fill="#2E57DB"/></symbol><symbol fill="none" viewBox="0 0 32 32" id="catalog" xmlns="http://www.w3.org/2000/svg"><g clip-path="url(#aca)"><path fill-rule="evenodd" clip-rule="evenodd" d="M13.333 12.284v10.383a4 4 0 1 1-8 0V11.96a3.557 3.557 0 0 1-4.218-5.636l5.223-5.223A3.542 3.542 0 0 1 8.615.068a3.548 3.548 0 0 1 2.822 1.028l5.208 5.208a3.555 3.555 0 0 1-3.312 5.98Z" fill="#FF7188"/><path d="M32 10.667a4 4 0 0 0-4-4H13.333a4 4 0 0 0-4 4V28a4 4 0 0 0 4 4H28a4 4 0 0 0 4-4V10.667Z" fill="#3AE7BC"/><path fill-rule="evenodd" clip-rule="evenodd" d="M13.333 22.667V12.284a3.556 3.556 0 0 0 3.629-5.617h-3.629a4 4 0 0 0-4 4v16a4 4 0 0 0 4-4Z" fill="#2E57DB"/></g><defs><clipPath id="aca"><path fill="#fff" d="M0 0h32v32H0z"/></clipPath></defs></symbol><symbol fill="none" viewBox="0 0 32 32" id="crm" xmlns="http://www.w3.org/2000/svg"><g clip-path="url(#ada)"><path fill-rule="evenodd" clip-rule="evenodd" d="M9 19A5 5 0 1 0 9 9a5 5 0 0 0 0 10Zm-3 3a6 6 0 0 0-6 6v1.5A2.5 2.5 0 0 0 2.5 32h13a2.5 2.5 0 0 0 2.5-2.5V28a6 6 0 0 0-6-6H6Z" fill="#FF7188"/><path d="M11.2 30.5v-4.208a20 20 0 0 0-8.375-16.274l-1.15-.822A4 4 0 0 1 0 5.942V1.5A1.5 1.5 0 0 1 1.5 0h29A1.5 1.5 0 0 1 32 1.5v4.53a4 4 0 0 1-1.561 3.17l-1.033.796A20 20 0 0 0 21.6 25.848V30.5a1.5 1.5 0 0 1-1.5 1.5h-7.4a1.5 1.5 0 0 1-1.5-1.5Z" fill="#3AE7BC"/><path fill-rule="evenodd" clip-rule="evenodd" d="M11.2 26.292V30.5a1.5 1.5 0 0 0 1.488 1.5H15.5a2.5 2.5 0 0 0 2.5-2.5V28a6 6 0 0 0-6-6h-1.266a19.99 19.99 0 0 1 .466 4.292Zm-1.402-7.355a5.001 5.001 0 1 0-5.132-7.432 20 20 0 0 1 5.132 7.432Z" fill="#2E57DB"/></g><defs><clipPath id="ada"><path fill="#fff" d="M0 0h32v32H0z"/></clipPath></defs></symbol><symbol fill="none" viewBox="0 0 32 32" id="feed" xmlns="http://www.w3.org/2000/svg"><g clip-path="url(#aea)"><path d="M20.05 7.813a6.592 6.592 0 0 0-2.128-1.34A6.93 6.93 0 0 0 15.408 6C13.775 6 11 7.727 11 8.59 11 7.728 8.225 6 6.593 6c-.864 0-1.72.162-2.517.474a6.595 6.595 0 0 0-2.13 1.344c-2.596 2.443-2.594 6.264.002 8.697L11 25l9.052-8.485c2.597-2.433 2.598-6.254-.002-8.702Z" fill="#FF7188"/><rect x="11" width="21" height="32" rx="3" fill="#3AE7BC"/><path fill-rule="evenodd" clip-rule="evenodd" d="M11 25V8.59C11 7.728 13.775 6 15.408 6a6.93 6.93 0 0 1 2.514.472 6.59 6.59 0 0 1 2.128 1.341c2.6 2.448 2.599 6.269.002 8.702L11 25Z" fill="#2E57DB"/></g><defs><clipPath id="aea"><path fill="#fff" d="M0 0h32v32H0z"/></clipPath></defs></symbol><symbol fill="none" viewBox="0 0 32 32" id="files" xmlns="http://www.w3.org/2000/svg"><path d="M24.937 12a3.423 3.423 0 1 1 4.84 4.84l-11.88 11.881a3.556 3.556 0 0 1-1.652.936l-5.498 1.374 1.374-5.498c.156-.626.48-1.197.935-1.652L24.938 12Z" fill="#FF7188" stroke="#FF7188" stroke-width="1.778" stroke-linejoin="round"/><path d="M0 7.556A3.556 3.556 0 0 1 3.556 4h9.07a3.556 3.556 0 0 0 2.657-1.193l1.434-1.614A3.556 3.556 0 0 1 19.375 0h3.736a3.556 3.556 0 0 1 3.556 3.556v18.222a3.556 3.556 0 0 1-3.556 3.555H3.556A3.555 3.555 0 0 1 0 21.778V7.556Z" fill="#3AE7BC"/><path fill-rule="evenodd" clip-rule="evenodd" d="M22.667 25.333H11.129c.169-.33.388-.632.653-.896l13.37-13.37a3.54 3.54 0 0 1 1.515-.9v11.166l-4 4Z" fill="#2E57DB"/></symbol><symbol fill="none" viewBox="0 0 32 32" id="finance" xmlns="http://www.w3.org/2000/svg"><g clip-path="url(#aga)" fill-rule="evenodd" clip-rule="evenodd"><path d="M10.115 6.002a3 3 0 0 1 2.163 1.046l6 7a3 3 0 0 1-4.556 3.904L13 17.11V29a3 3 0 1 1-6 0V16.243L5.121 18.12A3 3 0 1 1 .88 13.88l7-7a3 3 0 0 1 2.236-.877Z" fill="#FF7188"/><path d="M32 7a7 7 0 1 1-14 0 7 7 0 0 1 14 0Zm-1.074 25c.576 0 1.074-.424 1.074-1a7 7 0 1 0-14 0c0 .576.499 1 1.074 1h11.852ZM14 26a7 7 0 1 0 0-14 7 7 0 0 0 0 14Z" fill="#3AE7BC"/><path d="M13 25.93v-8.82l.722.842a3 3 0 0 0 4.556-3.904l-1.105-1.29A7 7 0 1 0 13 25.929Z" fill="#2E57DB"/></g><defs><clipPath id="aga"><path fill="#fff" d="M0 0h32v32H0z"/></clipPath></defs></symbol><symbol fill="none" viewBox="0 0 32 32" id="hr" xmlns="http://www.w3.org/2000/svg"><g clip-path="url(#aha)" fill-rule="evenodd" clip-rule="evenodd"><path d="M8.27 16a4.4 4.4 0 1 0 0-8.8 4.4 4.4 0 0 0 0 8.8ZM0 27a8 8 0 0 1 8-8h1a8 8 0 0 1 8 8v2a3 3 0 0 1-3 3H3a3 3 0 0 1-3-3v-2Z" fill="#FF7188"/><path d="M20.5 13a6.5 6.5 0 1 0 0-13 6.5 6.5 0 0 0 0 13ZM9 27.5C9 21.149 14.149 16 20.5 16S32 21.149 32 27.5V29a3 3 0 0 1-3 3H12a3 3 0 0 1-3-3v-1.5Z" fill="#3AE7BC"/><path d="M12.115 19.63A11.46 11.46 0 0 0 9 27.5V32h5.013A3 3 0 0 0 17 29v-2a8.002 8.002 0 0 0-4.885-7.37Z" fill="#2E57DB"/></g><defs><clipPath id="aha"><path fill="#fff" d="M0 0h32v32H0z"/></clipPath></defs></symbol><symbol fill="none" viewBox="0 0 32 32" id="idea" xmlns="http://www.w3.org/2000/svg"><g clip-path="url(#aia)"><path d="M24.025 26.282c.491-2.323 2.075-4.22 3.834-5.815C30.252 18.297 32 15.305 32 12c0-6.627-5.373-12-12-12S8 5.373 8 12c0 3.305 1.748 6.297 4.141 8.467 1.76 1.595 3.343 3.492 3.834 5.816L16 26.4l.267 3.742A2 2 0 0 0 18.262 32h3.203a2 2 0 0 0 1.98-1.717L24 26.4l.025-.117Z" fill="#3AE7BC"/><path d="M12.141 27.911c.239-1.949 1.492-3.581 2.936-4.911C16.77 21.44 18 19.365 18 17a9 9 0 1 0-18 0c0 2.365 1.23 4.441 2.923 6 1.444 1.33 2.697 2.962 2.936 4.911l.01.089.215 2.195A2 2 0 0 0 8.074 32h1.851a2 2 0 0 0 1.99-1.805L12.13 28l.011-.089Z" fill="#FF7188"/><path fill-rule="evenodd" clip-rule="evenodd" d="M14.737 23.4c.22-.252.451-.497.687-.733C16.935 21.15 18 19.2 18 17a9 9 0 0 0-9.32-8.994A11.98 11.98 0 0 0 8 12c0 3.305 1.748 6.297 4.141 8.467.97.88 1.886 1.85 2.596 2.934Z" fill="#2E57DB"/></g><defs><clipPath id="aia"><path fill="#fff" d="M0 0h32v32H0z"/></clipPath></defs></symbol><symbol fill="none" viewBox="0 0 32 32" id="knowledge" xmlns="http://www.w3.org/2000/svg"><g clip-path="url(#aja)"><path d="M18 12a6 6 0 0 0-6-6H3a3 3 0 0 0-3 3v13a3 3 0 0 0 3 3h11.986a5 5 0 0 1 2.774.84L18 26V12Z" fill="#FF7188"/><path d="M10 6a6 6 0 0 1 6-6h13a3 3 0 0 1 3 3v24a3 3 0 0 1-3 3H15.667a5 5 0 0 0-3 1l-1.067.8A1 1 0 0 1 10 31V6Z" fill="#3AE7BC"/><path fill-rule="evenodd" clip-rule="evenodd" d="M10 25V6h5a6 6 0 0 1 6 6v13.145a.858.858 0 0 1-1.366.69A4.287 4.287 0 0 0 17.092 25H10Z" fill="#2E57DB"/></g><defs><clipPath id="aja"><path fill="#fff" d="M0 0h32v32H0z"/></clipPath></defs></symbol><symbol fill="none" viewBox="0 0 32 32" id="kpi" xmlns="http://www.w3.org/2000/svg"><g clip-path="url(#aka)"><path d="M10 14.585V29a3 3 0 0 0 3 3h16a3 3 0 0 0 3-3V2.022C32 .162 29.684-.69 28.478.725L23.13 7a2.878 2.878 0 0 1-4.33.059 2.878 2.878 0 0 0-4.411.16l-3.34 4.301A5 5 0 0 0 10 14.585Z" fill="#3AE7BC"/><path d="M0 25.329V29a3 3 0 0 0 3 3h19a3 3 0 0 0 3-3V15.128c0-1.822-2.238-2.695-3.472-1.354l-5.83 6.337a3 3 0 0 1-4.407.01l-1.974-2.126a3 3 0 0 0-4.5.118L.93 22.764A4 4 0 0 0 0 25.33Z" fill="#FF7188"/><path fill-rule="evenodd" clip-rule="evenodd" d="M22 32a3 3 0 0 0 3-3V15.128c0-1.822-2.238-2.695-3.472-1.354l-5.83 6.337a3 3 0 0 1-4.407.01l-1.29-1.39V29a3 3 0 0 0 3 3h9Z" fill="#2E57DB"/></g><defs><clipPath id="aka"><path fill="#fff" d="M0 0h32v32H0z"/></clipPath></defs></symbol><symbol fill="none" viewBox="0 0 32 32" id="mail" xmlns="http://www.w3.org/2000/svg"><path d="M16 8A8 8 0 1 1 0 8a8 8 0 0 1 16 0Z" fill="#FF7188"/><path fill-rule="evenodd" clip-rule="evenodd" d="M28.444 11A3.556 3.556 0 0 1 32 14.556v3.742l-13.333 4.706L5 18.18v-3.624A3.556 3.556 0 0 1 8.556 11h19.888ZM5 21.95v6.494A3.556 3.556 0 0 0 8.556 32h19.888A3.556 3.556 0 0 0 32 28.444v-6.376l-12.742 4.497-.591.21-.592-.21L5 21.951Z" fill="#3AE7BC"/><path fill-rule="evenodd" clip-rule="evenodd" d="M5 15.418v-.862A3.556 3.556 0 0 1 8.556 11h6.863A8.003 8.003 0 0 1 5 15.418Z" fill="#2E57DB"/></symbol><symbol fill="none" viewBox="0 0 32 32" id="mind_map" xmlns="http://www.w3.org/2000/svg"><g clip-path="url(#ama)"><rect x="5.333" y="21.334" width="16" height="10.667" rx="1.778" fill="#FF7188"/><circle cx="25.333" cy="13.333" r="6.667" fill="#FF7188"/><rect x="-1.444" y="13.307" width="20.959" height="20.959" rx="3.556" transform="rotate(-45 -1.444 13.307)" fill="#3AE7BC"/><path fill-rule="evenodd" clip-rule="evenodd" d="m20.089 21.415-4.199 4.198a3.556 3.556 0 0 1-5.028 0l-4.218-4.218a1.78 1.78 0 0 1 .468-.062h12.444c.186 0 .365.029.533.082Zm2.2-14.014 3.393 3.392a3.556 3.556 0 0 1 0 5.028l-3.427 3.427a6.666 6.666 0 0 1-3.588-5.915 6.666 6.666 0 0 1 3.623-5.932Z" fill="#2E57DB"/></g><defs><clipPath id="ama"><path fill="#fff" d="M0 0h32v32H0z"/></clipPath></defs></symbol><symbol fill="none" viewBox="0 0 32 32" id="project" xmlns="http://www.w3.org/2000/svg"><g clip-path="url(#ana)"><path d="M23 16.5C23 22.851 17.851 28 11.5 28S0 22.851 0 16.5 5.149 5 11.5 5 23 10.149 23 16.5Zm-17.013 0a5.513 5.513 0 1 0 11.026 0 5.513 5.513 0 0 0-11.026 0Z" fill="#FF7188"/><path d="M10 7a7 7 0 0 1 7-7h14.5a.5.5 0 0 1 .3.9l-1.2.9A4 4 0 0 0 29 5v20.025a7 7 0 0 1-7 7H8.349a.5.5 0 0 1-.368-.84l.957-1.036A4 4 0 0 0 10 27.435V7Z" fill="#3AE7BC"/><path fill-rule="evenodd" clip-rule="evenodd" d="M10.27 5.065A7.004 7.004 0 0 0 10 7v4.17a5.536 5.536 0 1 1 0 10.661v5.733c0 .113-.006.226-.017.337.496.065 1.003.099 1.517.099C17.851 28 23 22.851 23 16.5S17.851 5 11.5 5c-.415 0-.825.022-1.23.065Z" fill="#2E57DB"/></g><defs><clipPath id="ana"><path fill="#fff" d="M0 0h32v32H0z"/></clipPath></defs></symbol><symbol fill="none" viewBox="0 0 32 32" id="reports" xmlns="http://www.w3.org/2000/svg"><g clip-path="url(#aoa)"><path fill-rule="evenodd" clip-rule="evenodd" d="M3.5 7A3.5 3.5 0 0 0 0 10.5v18a3.5 3.5 0 1 0 7 0v-18A3.5 3.5 0 0 0 3.5 7Zm10 11a3.5 3.5 0 0 0-3.5 3.5v7a3.5 3.5 0 1 0 7 0v-7a3.5 3.5 0 0 0-3.5-3.5Z" fill="#FF7188"/><path d="M32 13.5C32 20.956 25.956 27 18.5 27S5 20.956 5 13.5 11.044 0 18.5 0 32 6.044 32 13.5Zm-19.084 0a5.584 5.584 0 1 0 11.168 0 5.584 5.584 0 0 0-11.168 0Z" fill="#3AE7BC"/><path fill-rule="evenodd" clip-rule="evenodd" d="M7 20.579a13.5 13.5 0 0 1-.902-12.424c.56.62.902 1.443.902 2.345v10.079Zm10 6.338a13.498 13.498 0 0 1-7-2.925V21.5a3.5 3.5 0 1 1 7 0v5.417Z" fill="#2E57DB"/></g><defs><clipPath id="aoa"><path fill="#fff" d="M0 0h32v32H0z"/></clipPath></defs></symbol><symbol fill="none" viewBox="0 0 32 32" id="salary" xmlns="http://www.w3.org/2000/svg"><g clip-path="url(#apa)"><path d="M19 20.5a4.5 4.5 0 0 1 4.5-4.5h5.833A2.667 2.667 0 0 1 32 18.667v3.666A2.667 2.667 0 0 1 29.333 25H23.5a4.5 4.5 0 0 1-4.5-4.5Z" fill="#FF7188"/><path d="M0 12.556A3.556 3.556 0 0 1 3.556 9h20.888A3.556 3.556 0 0 1 28 12.556v15.888A3.556 3.556 0 0 1 24.444 32H3.556A3.556 3.556 0 0 1 0 28.444V12.556Z" fill="#3AE7BC"/><path fill-rule="evenodd" clip-rule="evenodd" d="M28 16v9h-4.5a4.5 4.5 0 1 1 0-9H28Z" fill="#2E57DB"/><path fill-rule="evenodd" clip-rule="evenodd" d="M4.332 3.256A5.333 5.333 0 0 0 0 8.495V16a3.556 3.556 0 0 0 3.556 3.555H4v-10A3.556 3.556 0 0 1 7.556 6H23.11V1.816A1.778 1.778 0 0 0 21 .07L4.332 3.256Z" fill="#3AE7BC"/></g><defs><clipPath id="apa"><path fill="#fff" d="M0 0h32v32H0z"/></clipPath></defs></symbol><symbol fill="none" viewBox="0 0 32 32" id="service" xmlns="http://www.w3.org/2000/svg"><g clip-path="url(#aqa)"><path fill-rule="evenodd" clip-rule="evenodd" d="M17.5 29C25.508 29 32 22.508 32 14.5S25.508 0 17.5 0 3 6.492 3 14.5 9.492 29 17.5 29Zm0-8a6.5 6.5 0 1 0 0-13 6.5 6.5 0 0 0 0 13Z" fill="#3AE7BC"/><path d="M0 18a3 3 0 0 1 3-3h13a3 3 0 0 1 3 3v8a3 3 0 0 1-3 3h-5.89a3 3 0 0 0-1.953.722l-2.041 1.75c-.398.34-.904.528-1.427.528a.73.73 0 0 1-.73-.73v-.687c0-.874-.71-1.583-1.584-1.583A2.375 2.375 0 0 1 0 26.625V18Z" fill="#FF7188"/><path fill-rule="evenodd" clip-rule="evenodd" d="M16.468 28.964A3 3 0 0 0 19 26v-5.174A6.5 6.5 0 0 1 11.02 15H3.008c.251 7.432 6.097 13.446 13.459 13.964Z" fill="#2E57DB"/></g><defs><clipPath id="aqa"><path fill="#fff" d="M0 0h32v32H0z"/></clipPath></defs></symbol><symbol fill="none" viewBox="0 0 32 32" id="tasks" xmlns="http://www.w3.org/2000/svg"><g clip-path="url(#ara)" fill-rule="evenodd" clip-rule="evenodd"><path d="M26.828 7.139a3.813 3.813 0 0 1 0 5.5l-13.6 13.222c-1.562 1.519-4.094 1.519-5.656 0l-6.4-6.222a3.813 3.813 0 0 1 0-5.5c1.562-1.519 4.094-1.519 5.656 0l3.572 3.472L21.172 7.14c1.562-1.519 4.094-1.519 5.656 0Z" fill="#FF7188"/><path d="M11 0a3 3 0 0 0-3 3v8a3 3 0 0 0 3 3h18a3 3 0 0 0 3-3V3a3 3 0 0 0-3-3H11Zm0 18a3 3 0 0 0-3 3v8a3 3 0 0 0 3 3h18a3 3 0 0 0 3-3v-8a3 3 0 0 0-3-3H11Z" fill="#3AE7BC"/><path d="m25.428 14 1.4-1.361a3.813 3.813 0 0 0 0-5.5c-1.562-1.519-4.094-1.519-5.656 0L14.114 14h11.314Zm-4.114 4-8.086 7.861c-1.426 1.387-3.661 1.507-5.228.362V21a3 3 0 0 1 3-3h10.314Z" fill="#2E57DB"/></g><defs><clipPath id="ara"><path fill="#fff" d="M0 0h32v32H0z"/></clipPath></defs></symbol><symbol fill="none" viewBox="0 0 32 32" id="timetracker" xmlns="http://www.w3.org/2000/svg"><circle cx="15.5" cy="17.5" r="10.944" stroke="#3AE7BC" stroke-width="7.111" stroke-linecap="round" stroke-linejoin="round"/><rect x="10" width="11" height="5" rx="2" fill="#FF7188"/><path fill-rule="evenodd" clip-rule="evenodd" d="M20.745 3.977A2 2 0 0 1 19 5h-7a2 2 0 0 1-1.745-1.022A14.464 14.464 0 0 1 15.5 3c1.85 0 3.619.346 5.245.977Z" fill="#2E57DB"/><path d="m15.5 17.5 11-11" stroke="#FF7188" stroke-width="7" stroke-linecap="round" stroke-linejoin="round"/><path fill-rule="evenodd" clip-rule="evenodd" d="M27.926 10.023a14.574 14.574 0 0 0-4.95-4.95l-5.348 5.35a7.405 7.405 0 0 1 4.95 4.949l5.348-5.349Z" fill="#2E57DB"/></symbol><symbol fill="none" viewBox="0 0 32 32" id="workspaces" xmlns="http://www.w3.org/2000/svg"><g clip-path="url(#ata)"><path d="M10 11c0-6.075 4.925-11 11-11s11 4.925 11 11-4.925 11-11 11H10V11Z" fill="#3AE7BC"/><path d="M22 21c0 6.075-4.925 11-11 11S0 27.075 0 21s4.925-11 11-11h9a2 2 0 0 1 2 2v9Z" fill="#FF7188"/><path fill-rule="evenodd" clip-rule="evenodd" d="M10.021 10.005c-.014.231-.021.464-.021.7V21a1 1 0 0 0 1 1h10.294c.236 0 .47-.008.701-.022.003-.11.005-.22.005-.33V11a1 1 0 0 0-1-1H10.353c-.111 0-.221.002-.332.005Z" fill="#2E57DB"/></g><defs><clipPath id="ata"><path fill="#fff" d="M0 0h32v32H0z"/></clipPath></defs></symbol></svg>