<?xml version="1.0" encoding="utf-8"?><svg xmlns="http://www.w3.org/2000/svg" xmlns:xlink="http://www.w3.org/1999/xlink"><symbol fill="none" viewBox="0 0 40 40" id="crm" xmlns="http://www.w3.org/2000/svg"><g clip-path="url(#aaa)"><path fill-rule="evenodd" clip-rule="evenodd" d="M11.5 24a6.5 6.5 0 1 0 0-13 6.5 6.5 0 0 0 0 13ZM8 27a8 8 0 0 0-8 8v2a3 3 0 0 0 3 3h18a3 3 0 0 0 3-3v-2a8 8 0 0 0-8-8H8Z" fill="#FF7188"/><path d="M14 38v-7.708a20 20 0 0 0-8.375-16.274l-3.531-2.522A5 5 0 0 1 0 7.426V2a2 2 0 0 1 2-2h36a2 2 0 0 1 2 2v5.538a5 5 0 0 1-1.951 3.963l-3.243 2.495A20 20 0 0 0 27 29.848V38a2 2 0 0 1-2 2h-9a2 2 0 0 1-2-2Z" fill="#3AE7BC"/><path fill-rule="evenodd" clip-rule="evenodd" d="M14 30.292V38a2 2 0 0 0 2 2h4a3 3 0 0 0 3-3v-2a8 8 0 0 0-8-8h-1.273c.18 1.08.273 2.18.273 3.292Zm-1.069-6.45a6.5 6.5 0 1 0-7.04-9.63 19.999 19.999 0 0 1 7.04 9.63Z" fill="#2E57DB"/></g><defs><clipPath id="aaa"><path fill="#fff" d="M0 0h40v40H0z"/></clipPath></defs></symbol><symbol fill="none" viewBox="0 0 40 40" id="finance" xmlns="http://www.w3.org/2000/svg"><g clip-path="url(#aba)" fill-rule="evenodd" clip-rule="evenodd"><path d="M9.172 9.172a4 4 0 0 1 5.656 0l8 8a4 4 0 1 1-5.656 5.656L16 21.657V36a4 4 0 0 1-8 0V21.657l-1.172 1.171a4 4 0 0 1-5.656-5.656l8-8Z" fill="#FF7188"/><path d="M40 9a9 9 0 1 1-18 0 9 9 0 0 1 18 0Zm-1.057 31c.57 0 1.057-.43 1.057-1a9 9 0 1 0-18 0c0 .57.487 1 1.057 1h15.886ZM17 33a9 9 0 1 0 0-18 9 9 0 0 0 0 18Z" fill="#3AE7BC"/><path d="M8 24c0 4.633 3.5 8.448 8 8.945V21.657l1.172 1.171a4 4 0 1 0 5.656-5.656l-.173-.174A9 9 0 0 0 8 24Z" fill="#2E57DB"/></g><defs><clipPath id="aba"><path fill="#fff" d="M0 0h40v40H0z"/></clipPath></defs></symbol><symbol fill="none" viewBox="0 0 40 40" id="hr" xmlns="http://www.w3.org/2000/svg"><g clip-path="url(#aca)" fill-rule="evenodd" clip-rule="evenodd"><path d="M10.369 20a5.5 5.5 0 1 0 0-11 5.5 5.5 0 0 0 0 11Zm-10.5 11a8 8 0 0 1 8-8h5a8 8 0 0 1 8 8v6a3 3 0 0 1-3 3h-15a3 3 0 0 1-3-3v-6Z" fill="#FF7188"/><path d="M25.869 16a8 8 0 1 0 0-16 8 8 0 0 0 0 16Zm-15 15c0-6.627 5.373-12 12-12h5c6.627 0 12 5.373 12 12v6a3 3 0 0 1-3 3h-23a3 3 0 0 1-3-3v-6Z" fill="#3AE7BC"/><path d="M13.87 23.062A11.955 11.955 0 0 0 10.868 31v9h7.035a3 3 0 0 0 2.965-3v-6a8.002 8.002 0 0 0-7-7.938Z" fill="#2E57DB"/></g><defs><clipPath id="aca"><path fill="#fff" d="M0 0h40v40H0z"/></clipPath></defs></symbol><symbol fill="none" viewBox="0 0 40 40" id="idea" xmlns="http://www.w3.org/2000/svg"><g clip-path="url(#ada)"><path d="M30.225 31.936c.491-2.323 2.053-4.234 3.889-5.74C37.464 23.449 40 19.45 40 15c0-8.284-6.716-15-15-15-8.284 0-15 6.716-15 15 0 4.45 2.536 8.449 5.886 11.196 1.836 1.506 3.398 3.417 3.89 5.74L20 33l.367 5.142A2 2 0 0 0 22.362 40h4.903a2 2 0 0 0 1.98-1.717L30 33l.225-1.064Z" fill="#3AE7BC"/><path d="M15.608 34.134c.245-1.962 1.495-3.614 3.035-4.855C21.12 27.284 23 24.483 23 21.25 23 15.037 17.851 10 11.5 10S0 15.037 0 21.25c0 3.233 1.88 6.034 4.357 8.03 1.54 1.24 2.79 2.892 3.035 4.854L7.5 35l.32 3.199A2 2 0 0 0 9.81 40h3.38a2 2 0 0 0 1.99-1.801L15.5 35l.108-.866Z" fill="#FF7188"/><path fill-rule="evenodd" clip-rule="evenodd" d="M18.678 29.273c.112-.106.227-.209.344-.31C21.309 26.994 23 24.317 23 21.25 23 15.037 17.851 10 11.5 10c-.22 0-.437.006-.653.018A14.978 14.978 0 0 0 10 15c0 4.45 2.536 8.449 5.886 11.196 1.08.885 2.064 1.91 2.792 3.077Z" fill="#2E57DB"/></g><defs><clipPath id="ada"><path fill="#fff" d="M0 0h40v40H0z"/></clipPath></defs></symbol><symbol fill="none" viewBox="0 0 40 40" id="invoice_acts" xmlns="http://www.w3.org/2000/svg"><circle cx="10.5" cy="18.5" transform="rotate(-180 10.5 18.5)" fill="#FF7188" r="10.5"/><path d="M10 37.778V2.222C10 .995 10.995 0 12.222 0h25.556C39.005 0 40 .995 40 2.222v35.556A2.222 2.222 0 0 1 37.778 40h-.19c-.519 0-1.02-.181-1.42-.512l-3.32-2.755a2.222 2.222 0 0 0-2.838 0l-3.322 2.755c-.398.33-.9.512-1.418.512h-.54c-.518 0-1.02-.181-1.419-.512l-3.32-2.755a2.222 2.222 0 0 0-2.838 0l-3.322 2.755c-.398.33-.9.512-1.418.512h-.19A2.222 2.222 0 0 1 10 37.778Z" fill="#3AE7BC"/><path fill-rule="evenodd" clip-rule="evenodd" d="M10 28.988V8.012c.166-.008.332-.012.5-.012C16.299 8 21 12.701 21 18.5S16.299 29 10.5 29c-.168 0-.334-.004-.5-.012Z" fill="#2E57DB"/></symbol><symbol fill="none" viewBox="0 0 40 40" id="knowledge" xmlns="http://www.w3.org/2000/svg"><g clip-path="url(#afa)"><path d="M22 13a6 6 0 0 0-6-6H3a3 3 0 0 0-3 3v19a3 3 0 0 0 3 3h15.82c.776 0 1.541.18 2.236.528L22 33V13Z" fill="#FF7188"/><path d="M12 6a6 6 0 0 1 6-6h19a3 3 0 0 1 3 3v32a3 3 0 0 1-3 3H17.667a5 5 0 0 0-3 1l-1.067.8A1 1 0 0 1 12 39V6Z" fill="#3AE7BC"/><path fill-rule="evenodd" clip-rule="evenodd" d="M12 32V7h8a6 6 0 0 1 6 6v19.005a1 1 0 0 1-1.502.864l-.334-.193a5 5 0 0 0-2.51-.676H12Z" fill="#2E57DB"/></g><defs><clipPath id="afa"><path fill="#fff" d="M0 0h40v40H0z"/></clipPath></defs></symbol><symbol fill="none" viewBox="0 0 40 40" id="kpi" xmlns="http://www.w3.org/2000/svg"><g clip-path="url(#aga)"><path d="M13 18.148V37a3 3 0 0 0 3 3h21a3 3 0 0 0 3-3V2.171C40 .343 37.75-.527 36.52.826L28.83 9.28a3 3 0 0 1-4.238.201L23.22 8.234a3 3 0 0 0-4.43.436l-4.81 6.505A5 5 0 0 0 13 18.148Z" fill="#3AE7BC"/><path d="M0 31.124V37a3 3 0 0 0 3 3h25a3 3 0 0 0 3-3V17.102c0-1.82-2.231-2.694-3.467-1.36l-8.387 9.054a3 3 0 0 1-4.3.105l-3.624-3.548a3 3 0 0 0-4.392.21L.942 28.546A4 4 0 0 0 0 31.124Z" fill="#FF7188"/><path fill-rule="evenodd" clip-rule="evenodd" d="M28.084 40A3 3 0 0 0 31 37V17.102c0-1.819-2.231-2.693-3.467-1.359l-8.387 9.054a3 3 0 0 1-4.3.105L13 23.094V37a3 3 0 0 0 3 3h12.084Z" fill="#2E57DB"/></g><defs><clipPath id="aga"><path fill="#fff" d="M0 0h40v40H0z"/></clipPath></defs></symbol><symbol fill="none" viewBox="0 0 40 40" id="project" xmlns="http://www.w3.org/2000/svg"><g clip-path="url(#aha)"><path d="M29 16.5C29 24.508 22.508 31 14.5 31S0 24.508 0 16.5 6.492 2 14.5 2 29 8.492 29 16.5Zm-21 0a6.5 6.5 0 1 0 13 0 6.5 6.5 0 0 0-13 0Z" fill="#FF7188"/><path d="M12 4a8 8 0 0 1 8-8h18.967c1.008 0 1.383 1.323.524 1.852l-1.587.977A4 4 0 0 0 36 2.235V28a8 8 0 0 1-8 8H11a1 1 0 0 1-.8-1.6l1-1.333a4 4 0 0 0 .8-2.4V4Z" fill="#3AE7BC"/><path fill-rule="evenodd" clip-rule="evenodd" d="M12.208 2.18A8.024 8.024 0 0 0 12 4v6.466a6.53 6.53 0 1 1 0 12.068v7.544c0 .235-.02.468-.061.697.831.148 1.687.225 2.561.225C22.508 31 29 24.508 29 16.5S22.508 2 14.5 2c-.78 0-1.546.062-2.292.18Z" fill="#2E57DB"/></g><defs><clipPath id="aha"><path fill="#fff" d="M0 0h40v40H0z"/></clipPath></defs></symbol><symbol fill="none" viewBox="0 0 40 40" id="service" xmlns="http://www.w3.org/2000/svg"><g clip-path="url(#aia)"><path fill-rule="evenodd" clip-rule="evenodd" d="M22 36c9.941 0 18-8.059 18-18S31.941 0 22 0 4 8.059 4 18s8.059 18 18 18Zm0-10a8 8 0 1 0 0-16 8 8 0 0 0 0 16Z" fill="#3AE7BC"/><path d="M0 22a3 3 0 0 1 3-3h18a3 3 0 0 1 3 3v11a3 3 0 0 1-3 3h-8.36a3 3 0 0 0-1.992.758l-2.851 2.534A2.803 2.803 0 0 1 5.934 40 .934.934 0 0 1 5 39.066V38a2 2 0 0 0-2-2 3 3 0 0 1-3-3V22Z" fill="#FF7188"/><path fill-rule="evenodd" clip-rule="evenodd" d="M21.29 35.986A3 3 0 0 0 24 33v-7.252A8.001 8.001 0 0 1 14.062 19H4.027c.506 9.241 7.983 16.626 17.262 16.986Z" fill="#2E57DB"/></g><defs><clipPath id="aia"><path fill="#fff" d="M0 0h40v40H0z"/></clipPath></defs></symbol><symbol fill="none" viewBox="0 0 40 40" id="tasks" xmlns="http://www.w3.org/2000/svg"><g clip-path="url(#aja)" fill-rule="evenodd" clip-rule="evenodd"><path d="M33.535 8.464a5 5 0 0 1 0 7.072l-17 17a5 5 0 0 1-7.07 0l-8-8a5 5 0 1 1 7.07-7.072L13 21.93 26.465 8.464a5 5 0 0 1 7.07 0Z" fill="#FF7188"/><path d="M13 0a3 3 0 0 0-3 3v12a3 3 0 0 0 3 3h24a3 3 0 0 0 3-3V3a3 3 0 0 0-3-3H13Zm0 22a3 3 0 0 0-3 3v12a3 3 0 0 0 3 3h24a3 3 0 0 0 3-3V25a3 3 0 0 0-3-3H13Z" fill="#3AE7BC"/><path d="m31.071 18 2.464-2.464a5 5 0 1 0-7.07-7.072L16.928 18H31.07Zm-4 4L16.535 32.535a5.001 5.001 0 0 1-6.535.466V25a3 3 0 0 1 3-3h14.071Z" fill="#2E57DB"/></g><defs><clipPath id="aja"><path fill="#fff" d="M0 0h40v40H0z"/></clipPath></defs></symbol></svg>