<?xml version="1.0" encoding="utf-8"?><svg xmlns="http://www.w3.org/2000/svg" xmlns:xlink="http://www.w3.org/1999/xlink"><symbol viewBox="0 0 24 24" fill="none" id="accountable" xmlns="http://www.w3.org/2000/svg"><path fill-rule="evenodd" clip-rule="evenodd" d="M19.5 9C21.9853 9 24 6.98528 24 4.5C24 2.01472 21.9853 0 19.5 0C17.0147 0 15 2.01472 15 4.5C15 6.98528 17.0147 9 19.5 9ZM13.5 17C15.433 17 17 15.433 17 13.5C17 11.567 15.433 10 13.5 10C11.567 10 10 11.567 10 13.5C10 15.433 11.567 17 13.5 17Z" fill="#FF7188"/><path d="M0 21.4717V14.6777C0 13.0594 0.77461 11.5387 2.08373 10.5872L8.33591 6.04291C8.60744 5.84556 8.93449 5.73926 9.27016 5.73926C10.5899 5.73926 11.3345 7.25501 10.5278 8.29955L7.66994 12H16.4451C18.1843 12 19.4042 13.7152 18.8336 15.3581L17.0119 20.6025C16.3054 22.6366 14.3883 24.0001 12.235 24.0001H2.52843C1.13202 24.0001 0 22.8681 0 21.4717Z" fill="#46E8C0"/><path fill-rule="evenodd" clip-rule="evenodd" d="M17 13.5C17 15.433 15.433 17 13.5 17C11.567 17 10 15.433 10 13.5C10 12.9632 10.1208 12.4546 10.3368 12H16.4451C16.5203 12 16.5945 12.0032 16.6677 12.0095C16.8808 12.4617 17 12.9669 17 13.5Z" fill="#2E57DB"/></symbol><symbol viewBox="0 0 24 24" fill="none" id="accountable_gray" xmlns="http://www.w3.org/2000/svg"><path opacity="0.36" fill-rule="evenodd" clip-rule="evenodd" d="M19.5 9C21.9853 9 24 6.98528 24 4.5C24 2.01472 21.9853 0 19.5 0C17.0147 0 15 2.01472 15 4.5C15 6.98528 17.0147 9 19.5 9ZM13.5 17C15.433 17 17 15.433 17 13.5C17 11.567 15.433 10 13.5 10C11.567 10 10 11.567 10 13.5C10 15.433 11.567 17 13.5 17Z" fill="#919BB6"/><path opacity="0.36" d="M0 21.4717V14.6777C0 13.0594 0.77461 11.5387 2.08373 10.5872L8.33591 6.04291C8.60744 5.84556 8.93449 5.73926 9.27016 5.73926C10.5899 5.73926 11.3345 7.25501 10.5278 8.29955L7.66994 12H16.4451C18.1843 12 19.4042 13.7152 18.8336 15.3581L17.0119 20.6025C16.3054 22.6366 14.3883 24.0001 12.235 24.0001H2.52843C1.13202 24.0001 0 22.8681 0 21.4717Z" fill="#919BB6"/></symbol><symbol viewBox="0 0 24 24" fill="none" id="act" xmlns="http://www.w3.org/2000/svg"><path fill-rule="evenodd" clip-rule="evenodd" d="M7 12.4645L6.5 12.9645L4.26777 10.7322C3.29146 9.75592 1.70854 9.75592 0.732233 10.7322C-0.244078 11.7085 -0.244078 13.2915 0.732233 14.2678L4.73223 18.2678C5.34824 18.8838 6.20575 19.1111 7 18.9498V12.4645Z" fill="#FF7188"/><path fill-rule="evenodd" clip-rule="evenodd" d="M18.1703 0.702942C17.7203 0.252855 17.1098 0 16.4733 0H8.4C7.07452 0 6 1.07452 6 2.4V21.6C6 22.9255 7.07452 24 8.4 24H21.6C22.9255 24 24 22.9255 24 21.6V7.5267C24 6.89018 23.7471 6.27974 23.2971 5.82965L18.1703 0.702942Z" fill="#3AE7BC"/><path fill-rule="evenodd" clip-rule="evenodd" d="M6 18.9498C6.79425 19.1111 7.65176 18.8838 8.26777 18.2678L16.2678 10.2678C17.2441 9.29146 17.2441 7.70854 16.2678 6.73223C15.2915 5.75592 13.7085 5.75592 12.7322 6.73223L6.5 12.9645L6 12.4645V18.9498Z" fill="#FF7188"/><path fill-rule="evenodd" clip-rule="evenodd" d="M6 18.9498C6.79425 19.1111 7.65176 18.8838 8.26777 18.2678L16.2678 10.2678C17.2441 9.29146 17.2441 7.70854 16.2678 6.73223C15.2915 5.75592 13.7085 5.75592 12.7322 6.73223L6.5 12.9645L6 12.4645V18.9498Z" fill="#2E57DB"/></symbol><symbol viewBox="0 0 24 24" fill="none" id="act_gray" xmlns="http://www.w3.org/2000/svg"><path opacity="0.36" fill-rule="evenodd" clip-rule="evenodd" d="M16.2678 6.73223C17.2441 7.70854 17.2441 9.29146 16.2678 10.2678L8.26777 18.2678C7.29146 19.2441 5.70854 19.2441 4.73223 18.2678L0.732233 14.2678C-0.244078 13.2915 -0.244078 11.7085 0.732233 10.7322C1.70854 9.75592 3.29146 9.75592 4.26777 10.7322L6.5 12.9645L12.7322 6.73223C13.7085 5.75592 15.2915 5.75592 16.2678 6.73223Z" fill="#919BB6"/><path opacity="0.36" fill-rule="evenodd" clip-rule="evenodd" d="M18.1703 0.702942C17.7203 0.252855 17.1098 0 16.4733 0H8.4C7.07452 0 6 1.07452 6 2.4V21.6C6 22.9255 7.07452 24 8.4 24H21.6C22.9255 24 24 22.9255 24 21.6V7.5267C24 6.89018 23.7471 6.27974 23.2971 5.82965L18.1703 0.702942Z" fill="#919BB6"/></symbol><symbol viewBox="0 0 24 24" fill="none" id="agile" xmlns="http://www.w3.org/2000/svg"><path fill-rule="evenodd" clip-rule="evenodd" d="M4.01045 18H1C0.447715 18 0 18.4477 0 19V23C0 23.5523 0.447715 24 1 24H13.5H14C14.0756 24 14.1493 23.9916 14.2201 23.9757C19.6832 23.6057 24 19.0569 24 13.5C24 7.70101 19.299 3 13.5 3C7.70101 3 3 7.70101 3 13.5C3 15.1104 3.36254 16.6361 4.01045 18ZM13.5 18C15.9853 18 18 15.9853 18 13.5C18 11.0147 15.9853 9 13.5 9C11.0147 9 9 11.0147 9 13.5C9 15.9853 11.0147 18 13.5 18Z" fill="#3AE7BC"/><path d="M-1.42652e-06 5.5C-1.16097e-06 2.46243 2.46243 2.07296e-07 5.5 4.72849e-07C8.53757 7.38401e-07 11 2.46243 11 5.5C11 8.53757 8.53757 11 5.5 11C2.46243 11 -1.69208e-06 8.53757 -1.42652e-06 5.5Z" fill="#FF7188"/><path fill-rule="evenodd" clip-rule="evenodd" d="M10.5885 3.40894C10.8537 4.0536 11 4.75975 11 5.50006C11 8.53763 8.53757 11.0001 5.5 11.0001C4.75969 11.0001 4.05354 10.8538 3.40887 10.5886C4.40483 7.1304 7.13033 4.40489 10.5885 3.40894Z" fill="#2E57DB"/></symbol><symbol viewBox="0 0 24 24" fill="none" id="agile_gray" xmlns="http://www.w3.org/2000/svg"><path opacity="0.36" fill-rule="evenodd" clip-rule="evenodd" d="M4.01045 18H1C0.447715 18 0 18.4477 0 19V23C0 23.5523 0.447715 24 1 24H13.5H14C14.0756 24 14.1493 23.9916 14.2201 23.9757C19.6832 23.6057 24 19.0569 24 13.5C24 7.70101 19.299 3 13.5 3C7.70101 3 3 7.70101 3 13.5C3 15.1104 3.36254 16.6361 4.01045 18ZM13.5 18C15.9853 18 18 15.9853 18 13.5C18 11.0147 15.9853 9 13.5 9C11.0147 9 9 11.0147 9 13.5C9 15.9853 11.0147 18 13.5 18Z" fill="#919BB6"/><path opacity="0.36" d="M-1.42652e-06 5.5C-1.16097e-06 2.46243 2.46243 2.07296e-07 5.5 4.72849e-07C8.53757 7.38401e-07 11 2.46243 11 5.5C11 8.53757 8.53757 11 5.5 11C2.46243 11 -1.69208e-06 8.53757 -1.42652e-06 5.5Z" fill="#919BB6"/></symbol><symbol viewBox="0 0 24 24" fill="none" id="api" xmlns="http://www.w3.org/2000/svg"><path fill-rule="evenodd" clip-rule="evenodd" d="M8 4H6.12055C5.7785 4 5.47979 4.23142 5.39433 4.56262L5.00206 6.08291C4.94135 6.31817 4.77723 6.5121 4.56544 6.63115C4.36017 6.74654 4.11956 6.78616 3.89264 6.72327L2.30866 6.28425C1.97391 6.19147 1.61442 6.33468 1.43772 6.63121L0.104314 8.86889C-0.0723841 9.16542 -0.0206463 9.53868 0.229657 9.77317L1.41327 10.882C1.5829 11.0409 1.66909 11.2676 1.66909 11.5C1.66909 11.7325 1.58288 11.9592 1.4132 12.1182L0.229649 13.227C-0.0206546 13.4614 -0.0723922 13.8347 0.104306 14.1312L1.43771 16.3689C1.61441 16.6654 1.97391 16.8087 2.30866 16.7159L3.89285 16.2768C4.11972 16.2139 4.36028 16.2535 4.5655 16.3689C4.77725 16.4879 4.94135 16.6818 5.00204 16.917L5.39433 18.4374C5.47979 18.7686 5.77851 19 6.12055 19H8V4Z" fill="#FF7188"/><path d="M7 4C7 1.79086 8.79086 0 11 0H21.5C22.8807 0 24 1.11929 24 2.5V20.5C24 21.8807 22.8807 23 21.5 23H11.3355C10.4605 23 9.60082 23.2296 8.84235 23.6659L8.49864 23.8637C7.83197 24.2472 7 23.766 7 22.9969V4Z" fill="#3AE7BC"/><path fill-rule="evenodd" clip-rule="evenodd" d="M7 19V4H8.82887C9.17092 4 9.46963 4.23142 9.55509 4.56262L9.94733 6.08277C10.0081 6.31812 10.1722 6.51212 10.3841 6.63123C10.5895 6.74667 10.8302 6.78631 11.0572 6.72339L12.6409 6.28446C12.9756 6.19168 13.3351 6.3349 13.5118 6.63143L14.8452 8.8691C15.0219 9.16563 14.9702 9.53889 14.7199 9.77338L13.5359 10.8825C13.3665 11.0413 13.2803 11.2678 13.2803 11.5C13.2803 11.7326 13.3666 11.9593 13.5363 12.1184L14.7199 13.2271C14.9702 13.4616 15.0219 13.8349 14.8452 14.1314L13.5118 16.3691C13.3351 16.6656 12.9756 16.8088 12.6408 16.7161L11.0563 16.2769C10.8295 16.214 10.589 16.2536 10.3838 16.3689C10.1721 16.4879 10.0081 16.6818 9.94741 16.9169L9.55509 18.4374C9.46963 18.7686 9.17092 19 8.82887 19H7Z" fill="#2E57DB"/></symbol><symbol viewBox="0 0 24 24" fill="none" id="aspro_finance" xmlns="http://www.w3.org/2000/svg"><path d="M16 9.52197C16 8.68141 15.3186 8 14.478 8L1.6 8C0.716346 8 1.42435e-06 8.71634 1.3471e-06 9.6L2.78955e-07 21.8182C1.73612e-07 23.0232 0.976833 24 2.18182 24V24C9.81339 24 16 17.8134 16 10.1818L16 9.52197Z" fill="#FF7188"/><path d="M24 1.42857C24 0.639593 23.3604 -5.32598e-08 22.5714 -1.18959e-07L4.8 -1.59881e-06C2.14904 -1.81956e-06 1.20858e-06 2.14903 9.76822e-07 4.8L3.64863e-07 11.8C2.1036e-07 13.5673 1.43269 15 3.2 15L10.4286 15C17.9239 15 24 8.92387 24 1.42857V1.42857Z" fill="#3AE7BC"/><path fill-rule="evenodd" clip-rule="evenodd" d="M15.4545 14.039C15.8096 12.8148 16 11.5205 16 10.1818V9.52197C16 8.68141 15.3186 8 14.478 8L3.2 8C1.43269 8 0 9.43269 0 11.2L0 11.8C0 13.5673 1.43269 15 3.2 15L10.4286 15C12.2042 15 13.9001 14.659 15.4545 14.039Z" fill="#2E57DB"/></symbol><symbol viewBox="0 0 24 24" fill="none" id="aspro_finance_gray" xmlns="http://www.w3.org/2000/svg"><path opacity="0.36" d="M16 9.52197C16 8.68141 15.3186 8 14.478 8L1.6 8C0.716346 8 1.42435e-06 8.71634 1.3471e-06 9.6L2.78955e-07 21.8182C1.73612e-07 23.0232 0.976833 24 2.18182 24V24C9.81339 24 16 17.8134 16 10.1818L16 9.52197Z" fill="#919BB6"/><path opacity="0.36" d="M24 1.42857C24 0.639593 23.3604 -5.32598e-08 22.5714 -1.18959e-07L4.8 -1.59881e-06C2.14904 -1.81956e-06 1.20858e-06 2.14903 9.76822e-07 4.8L3.64863e-07 11.8C2.1036e-07 13.5673 1.43269 15 3.2 15L10.4286 15C17.9239 15 24 8.92387 24 1.42857V1.42857Z" fill="#919BB6"/></symbol><symbol viewBox="0 0 24 24" fill="none" id="base_module" xmlns="http://www.w3.org/2000/svg"><path d="M4.66428 12C2.08827 12 -0.0811076 14.164 0.895165 16.5478C1.49283 18.0072 2.37797 19.3485 3.51472 20.4853C5.76515 22.7357 8.8174 24 12 24C15.1826 24 18.2348 22.7357 20.4853 20.4853C21.622 19.3485 22.5072 18.0072 23.1048 16.5478C24.0811 14.164 21.9117 12 19.3357 12L16.7695 12C15.6108 12 14.7083 13.0696 13.889 13.889C13.388 14.39 12.7085 14.6714 12 14.6714C11.2915 14.6714 10.612 14.39 10.111 13.889C9.29165 13.0696 8.38922 12 7.23047 12L4.66428 12Z" fill="#FF7188"/><path d="M12 20.5202C12 22.442 13.5897 24.0485 15.4313 23.499C16.8057 23.0888 18.1044 22.433 19.2613 21.5537C21.3493 19.9667 22.86 17.7393 23.5621 15.2123C24.2641 12.6853 24.119 9.99785 23.1488 7.56116C22.6114 6.21117 21.837 4.97934 20.8712 3.91903C19.577 2.49828 17.3865 3.05448 16.3951 4.70089L16.2898 4.87573C15.3566 6.42557 16.0137 8.45474 16.6829 10.1355C17.0904 11.159 17.1514 12.2878 16.8565 13.3493C16.5616 14.4107 15.927 15.3463 15.05 16.0129C13.6097 17.1076 12 18.507 12 20.3161V20.5202Z" fill="#3AE7BC"/><path fill-rule="evenodd" clip-rule="evenodd" d="M15.4313 23.499C13.5897 24.0485 12 22.442 12 20.5202V20.3161C12 18.507 13.6097 17.1076 15.05 16.0129C15.927 15.3463 16.5616 14.4107 16.8565 13.3493C16.9793 12.907 17.0404 12.4531 17.0404 12L19.3357 12C21.9117 12 24.0811 14.164 23.1048 16.5478C23.0362 16.7155 22.9637 16.8816 22.8875 17.046C22.7767 17.2851 22.6582 17.5202 22.5322 17.751C22.1149 18.5152 21.6154 19.2321 21.0426 19.8887C20.9024 20.0494 20.7577 20.2066 20.6088 20.3599C20.568 20.402 20.5268 20.4438 20.4853 20.4853C20.3906 20.58 20.2944 20.673 20.1969 20.7642C20.0911 20.8631 19.9835 20.9602 19.874 21.0554C19.6758 21.2278 19.4714 21.394 19.2613 21.5537C18.8275 21.8834 18.3737 22.1818 17.9035 22.4475C17.1927 22.8491 16.4444 23.1762 15.6705 23.4249C15.591 23.4504 15.5113 23.4751 15.4313 23.499Z" fill="#2E57DB"/><circle cx="7" cy="5" r="4" fill="#FF7188"/></symbol><symbol viewBox="0 0 24 24" fill="none" id="budget" xmlns="http://www.w3.org/2000/svg"><g clip-path="url(#akclip0_33029_18333)"><path d="M15.2875 24C13.4719 24 12 22.5281 12 20.7125V20.7125C12 20.2429 12.1006 19.7789 12.295 19.3514L14.0177 15.5636C14.7278 14.0023 16.2848 13 18 13V13C19.7152 13 21.2722 14.0023 21.9823 15.5636L23.705 19.3514C23.8994 19.7789 24 20.2429 24 20.7125V20.7125C24 22.5281 22.5281 24 20.7125 24L15.2875 24Z" fill="#FF7188"/><path d="M18.75 12C19.9926 12 21 10.9926 21 9.75V9.75C21 9.33579 20.6642 9 20.25 9L15.75 9C15.3358 9 15 9.33579 15 9.75V9.75C15 10.9926 16.0074 12 17.25 12L18.75 12Z" fill="#FF7188"/><path d="M7 20.5C7 20.7761 7.22386 21 7.5 21H16C17.1046 21 18 20.1046 18 19V7.5C18 7.22386 17.7761 7 17.5 7L7.5 7C7.22386 7 7 7.22386 7 7.5L7 20.5Z" fill="#3AE7BC"/><path d="M5 20.5C5 20.7761 4.77614 21 4.5 21H2C0.89543 21 0 20.1046 0 19L0 7.5C0 7.22386 0.223858 7 0.5 7H4.5C4.77614 7 5 7.22386 5 7.5L5 20.5Z" fill="#3AE7BC"/><path d="M0 4.5C0 4.77614 0.223858 5 0.5 5L4.5 5C4.77614 5 5 4.77614 5 4.5L5 0.5C5 0.223858 4.77614 0 4.5 0L2 0C0.89543 0 0 0.895431 0 2L0 4.5Z" fill="#3AE7BC"/><path d="M18 4.5C18 4.77614 17.7761 5 17.5 5L7.5 5C7.22386 5 7 4.77614 7 4.5V0.5C7 0.223858 7.22386 0 7.5 0L16 0C17.1046 0 18 0.895431 18 2V4.5Z" fill="#3AE7BC"/><path fill-rule="evenodd" clip-rule="evenodd" d="M18 13V19C18 20.1046 17.1046 21 16 21H12.0124C12.0042 20.9053 12 20.8094 12 20.7125C12 20.2429 12.1006 19.7789 12.295 19.3514L14.0177 15.5636C14.7278 14.0023 16.2848 13 18 13ZM18 12V9H15.75C15.3358 9 15 9.33579 15 9.75C15 10.9926 16.0074 12 17.25 12H18Z" fill="#2E57DB"/></g><defs><clipPath id="akclip0_33029_18333"><rect width="24" height="24" fill="white"/></clipPath></defs></symbol><symbol viewBox="0 0 24 24" fill="none" id="budget_gray" xmlns="http://www.w3.org/2000/svg"><g clip-path="url(#alclip0_33029_18343)"><path opacity="0.36" d="M15.2875 24C13.4719 24 12 22.5281 12 20.7125V20.7125C12 20.2429 12.1006 19.7789 12.295 19.3514L14.0177 15.5636C14.7278 14.0023 16.2848 13 18 13V13C19.7152 13 21.2722 14.0023 21.9823 15.5636L23.705 19.3514C23.8994 19.7789 24 20.2429 24 20.7125V20.7125C24 22.5281 22.5281 24 20.7125 24L15.2875 24Z" fill="#919BB6"/><path opacity="0.36" d="M18.75 12C19.9926 12 21 10.9926 21 9.75V9.75C21 9.33579 20.6642 9 20.25 9L15.75 9C15.3358 9 15 9.33579 15 9.75V9.75C15 10.9926 16.0074 12 17.25 12L18.75 12Z" fill="#919BB6"/><path opacity="0.36" d="M7 20.5C7 20.7761 7.22386 21 7.5 21H16C17.1046 21 18 20.1046 18 19V7.5C18 7.22386 17.7761 7 17.5 7L7.5 7C7.22386 7 7 7.22386 7 7.5L7 20.5Z" fill="#919BB6"/><path opacity="0.36" d="M5 20.5C5 20.7761 4.77614 21 4.5 21H2C0.89543 21 0 20.1046 0 19L0 7.5C0 7.22386 0.223858 7 0.5 7H4.5C4.77614 7 5 7.22386 5 7.5L5 20.5Z" fill="#919BB6"/><path opacity="0.36" d="M0 4.5C0 4.77614 0.223858 5 0.5 5L4.5 5C4.77614 5 5 4.77614 5 4.5L5 0.5C5 0.223858 4.77614 0 4.5 0L2 0C0.89543 0 0 0.895431 0 2L0 4.5Z" fill="#919BB6"/><path opacity="0.36" d="M18 4.5C18 4.77614 17.7761 5 17.5 5L7.5 5C7.22386 5 7 4.77614 7 4.5V0.5C7 0.223858 7.22386 0 7.5 0L16 0C17.1046 0 18 0.895431 18 2V4.5Z" fill="#919BB6"/></g><defs><clipPath id="alclip0_33029_18343"><rect width="24" height="24" fill="white"/></clipPath></defs></symbol><symbol viewBox="0 0 24 24" fill="none" id="calendar" xmlns="http://www.w3.org/2000/svg"><path fill-rule="evenodd" clip-rule="evenodd" d="M11 4C12.6569 4 14 5.34315 14 7C14 8.65685 12.6569 10 11 10H3C1.34315 10 0 8.65685 0 7C0 5.34315 1.34315 4 3 4H11ZM17 14C18.6569 14 20 15.3431 20 17C20 18.6569 18.6569 20 17 20H6C4.34315 20 3 18.6569 3 17C3 15.3431 4.34315 14 6 14H17Z" fill="#FF7188"/><rect x="8" width="16" height="24" rx="2.66667" fill="#3AE7BC"/><path fill-rule="evenodd" clip-rule="evenodd" d="M8 20H17C18.6569 20 20 18.6569 20 17C20 15.3431 18.6569 14 17 14H8V20ZM8 10H11C12.6569 10 14 8.65685 14 7C14 5.34315 12.6569 4 11 4H8V10Z" fill="#2E57DB"/></symbol><symbol viewBox="0 0 24 24" fill="none" id="calendar_gray" xmlns="http://www.w3.org/2000/svg"><path opacity="0.36" fill-rule="evenodd" clip-rule="evenodd" d="M11 4C12.6569 4 14 5.34315 14 7C14 8.65685 12.6569 10 11 10H3C1.34315 10 0 8.65685 0 7C0 5.34315 1.34315 4 3 4H11ZM17 14C18.6569 14 20 15.3431 20 17C20 18.6569 18.6569 20 17 20H6C4.34315 20 3 18.6569 3 17C3 15.3431 4.34315 14 6 14H17Z" fill="#919BB6"/><rect opacity="0.36" x="8" width="16" height="24" rx="2.66667" fill="#919BB6"/></symbol><symbol viewBox="0 0 24 24" fill="none" id="catalog" xmlns="http://www.w3.org/2000/svg"><g clip-path="url(#aoclip0_33029_18154)"><path fill-rule="evenodd" clip-rule="evenodd" d="M9.99997 9.21301L9.99997 16.9999C9.99997 18.6568 8.65682 19.9999 6.99997 19.9999C5.34312 19.9999 3.99997 18.6568 3.99997 16.9999L3.99997 8.96996C2.98792 9.52291 1.69322 9.37101 0.836468 8.51425C-0.204929 7.47285 -0.20493 5.78441 0.836468 4.74301L4.75343 0.826056C5.22949 0.349994 5.84077 0.0915572 6.46364 0.0507473C7.22004 -0.0138626 7.99875 0.243243 8.57757 0.822064L12.4838 4.72834C13.5252 5.76974 13.5252 7.45818 12.4838 8.49957C11.8099 9.17347 10.8651 9.41128 9.99997 9.21301Z" fill="#FF7188"/><path d="M24 8C24 6.34315 22.6569 5 21 5H10C8.34315 5 7 6.34315 7 8V21C7 22.6569 8.34315 24 10 24H21C22.6569 24 24 22.6569 24 21V8Z" fill="#3AE7BC"/><path fill-rule="evenodd" clip-rule="evenodd" d="M9.99997 16.9999L9.99997 9.21301C10.8651 9.41128 11.8099 9.17347 12.4838 8.49957C13.4389 7.54453 13.5181 6.04529 12.7214 5H9.99997C8.34312 5 6.99997 6.34315 6.99997 8L6.99997 19.9999C8.65683 19.9999 9.99997 18.6568 9.99997 16.9999Z" fill="#2E57DB"/></g><defs><clipPath id="aoclip0_33029_18154"><rect width="24" height="24" fill="white"/></clipPath></defs></symbol><symbol viewBox="0 0 24 24" fill="none" id="catalog_gray" xmlns="http://www.w3.org/2000/svg"><g clip-path="url(#apclip0_33029_18167)"><path opacity="0.36" fill-rule="evenodd" clip-rule="evenodd" d="M9.99997 9.21301L9.99997 16.9999C9.99997 18.6568 8.65682 19.9999 6.99997 19.9999C5.34312 19.9999 3.99997 18.6568 3.99997 16.9999L3.99997 8.96996C2.98792 9.52291 1.69322 9.37101 0.836468 8.51425C-0.204929 7.47285 -0.20493 5.78441 0.836468 4.74301L4.75343 0.826056C5.22949 0.349994 5.84077 0.0915572 6.46364 0.0507473C7.22004 -0.0138626 7.99875 0.243243 8.57757 0.822064L12.4838 4.72834C13.5252 5.76974 13.5252 7.45818 12.4838 8.49957C11.8099 9.17347 10.8651 9.41128 9.99997 9.21301Z" fill="#919BB6"/><path opacity="0.36" d="M24 8C24 6.34315 22.6569 5 21 5H10C8.34315 5 7 6.34315 7 8V21C7 22.6569 8.34315 24 10 24H21C22.6569 24 24 22.6569 24 21V8Z" fill="#919BB6"/></g><defs><clipPath id="apclip0_33029_18167"><rect width="24" height="24" fill="white"/></clipPath></defs></symbol><symbol viewBox="0 0 24 24" fill="none" id="communications" xmlns="http://www.w3.org/2000/svg"><path d="M24 10.6667C24 6.98477 21.0152 4 17.3333 4H10.6667C6.98477 4 4 6.98477 4 10.6667V13.3272C4 17.0091 6.98477 19.9939 10.6667 19.9939H15V22.6641C15 23.8519 16.4359 24.4468 17.276 23.6071L22.0465 18.8385C23.2973 17.5881 24 15.8921 24 14.1235V10.6667Z" fill="#3AE7BC"/><path d="M0 5.65685C0 2.53266 2.53266 0 5.65685 0H12.5C15.5376 0 18 2.46243 18 5.5V5.5C18 8.53757 15.5376 11 12.5 11H9V13.781C9 14.9689 7.56381 15.5638 6.72386 14.7239L1.65685 9.65685C0.595986 8.59599 0 7.15715 0 5.65685V5.65685Z" fill="#FF7188"/><path fill-rule="evenodd" clip-rule="evenodd" d="M4 12V10.6667C4 6.98477 6.98477 4 10.6667 4H17.3333C17.4893 4 17.6441 4.00536 17.7974 4.0159C17.9294 4.48801 18 4.98577 18 5.5C18 8.53757 15.5376 11 12.5 11H9V13.781C9 14.9689 7.56381 15.5638 6.72386 14.7239L4 12Z" fill="#2E57DB"/></symbol><symbol viewBox="0 0 24 24" fill="none" id="communications_gray" xmlns="http://www.w3.org/2000/svg"><path opacity="0.36" d="M24 10.6667C24 6.98477 21.0152 4 17.3333 4H10.6667C6.98477 4 4 6.98477 4 10.6667V13.3272C4 17.0091 6.98477 19.9939 10.6667 19.9939H15V22.6641C15 23.8519 16.4359 24.4468 17.276 23.6071L22.0465 18.8385C23.2973 17.5881 24 15.8921 24 14.1235V10.6667Z" fill="#919BB6"/><path opacity="0.36" d="M0 5.65685C0 2.53266 2.53266 0 5.65685 0H12.5C15.5376 0 18 2.46243 18 5.5V5.5C18 8.53757 15.5376 11 12.5 11H9V13.781C9 14.9689 7.56381 15.5638 6.72386 14.7239L1.65685 9.65685C0.595986 8.59599 0 7.15715 0 5.65685V5.65685Z" fill="#919BB6"/></symbol><symbol viewBox="0 0 24 24" fill="none" id="company" xmlns="http://www.w3.org/2000/svg"><path d="M24 22C24 23.1046 23.1046 24 22 24L8 24L8 11C8 9.89543 8.89543 9 10 9L22 9C23.1046 9 24 9.89543 24 11L24 22Z" fill="#3AE7BC"/><path d="M14 22C14 23.1046 13.1046 24 12 24L2 24C0.895432 24 1.82907e-06 23.1046 1.7325e-06 22L7.02682e-07 10.2202C6.47171e-07 9.58525 0.301516 8.98801 0.812424 8.61098L11.9281 0.407931C12.7863 -0.225421 14 0.38731 14 1.45394L14 22Z" fill="#FF7188"/><path fill-rule="evenodd" clip-rule="evenodd" d="M12 24C13.1046 24 14 23.1046 14 22L14 9H10C8.89543 9 8 9.89543 8 11V24L12 24Z" fill="#2E57DB"/></symbol><symbol viewBox="0 0 24 24" fill="none" id="company_gray" xmlns="http://www.w3.org/2000/svg"><path opacity="0.36" d="M24 22C24 23.1046 23.1046 24 22 24L8 24L8 11C8 9.89543 8.89543 9 10 9L22 9C23.1046 9 24 9.89543 24 11L24 22Z" fill="#919BB6"/><path opacity="0.36" d="M14 22C14 23.1046 13.1046 24 12 24L2 24C0.895432 24 1.82907e-06 23.1046 1.7325e-06 22L7.02682e-07 10.2202C6.47171e-07 9.58525 0.301516 8.98801 0.812424 8.61098L11.9281 0.407931C12.7863 -0.225421 14 0.38731 14 1.45394L14 22Z" fill="#919BB6"/></symbol><symbol viewBox="0 0 24 24" fill="none" id="contact" xmlns="http://www.w3.org/2000/svg"><path fill-rule="evenodd" clip-rule="evenodd" d="M6.5 14C8.433 14 10 12.433 10 10.5C10 8.567 8.433 7 6.5 7C4.567 7 3 8.567 3 10.5C3 12.433 4.567 14 6.5 14ZM6 16C2.68629 16 0 18.6863 0 22C0 23.1046 0.89543 24 2 24H11C12.1046 24 13 23.1046 13 22C13 18.6863 10.3137 16 7 16H6Z" fill="#FF7188"/><path d="M7 22C7 23.1046 7.89543 24 9 24L22 24C23.1046 24 24 23.1046 24 22L24 2C24 0.89543 23.1046 -4.99443e-07 22 -5.96007e-07L9 -1.7325e-06C7.89543 -1.82907e-06 7 0.895429 7 2L7 22Z" fill="#3AE7BC"/><path fill-rule="evenodd" clip-rule="evenodd" d="M9 24C7.89543 24 7 23.1045 7 22V16C10.3137 16 13 18.6862 13 22C13 23.1045 12.1046 24 11 24H9ZM7 13.9645C8.69615 13.7219 10 12.2632 10 10.5C10 8.73672 8.69615 7.27802 7 7.0354L7 13.9645Z" fill="#2E57DB"/></symbol><symbol viewBox="0 0 24 24" fill="none" id="contact_center" xmlns="http://www.w3.org/2000/svg"><path d="M19 10C16.2386 10 14 7.76142 14 5C14 2.23858 16.2386 0 19 0C21.7614 0 24 2.23858 24 5C24 7.76142 21.7614 10 19 10Z" fill="#FF7188"/><path fill-rule="evenodd" clip-rule="evenodd" d="M11 24C17.0751 24 22 19.0751 22 13C22 6.92487 17.0751 2 11 2C4.92487 2 0 6.92487 0 13C0 14.4153 0.26728 15.7681 0.754117 17.0108C0.903096 17.3911 0.961 17.8036 0.889025 18.2056L0.0663768 22.8007C-0.0565502 23.4873 0.543562 24.0857 1.22983 23.9607L5.82084 23.1249C6.22284 23.0517 6.63564 23.1085 7.0165 23.2565C8.25169 23.7366 9.59509 24 11 24ZM6 10.5C6 9.67157 6.67157 9 7.5 9H12.5C13.3284 9 14 9.67157 14 10.5C14 11.3284 13.3284 12 12.5 12H7.5C6.67157 12 6 11.3284 6 10.5ZM7.5 14C6.67157 14 6 14.6716 6 15.5C6 16.3284 6.67157 17 7.5 17H15.5C16.3284 17 17 16.3284 17 15.5C17 14.6716 16.3284 14 15.5 14H7.5Z" fill="#3AE7BC"/><path fill-rule="evenodd" clip-rule="evenodd" d="M14 5.00003C14 7.76145 16.2386 10 19 10C19.8673 10 20.6831 9.77918 21.3941 9.39066C20.2929 6.21904 17.781 3.70715 14.6093 2.60596C14.2208 3.31696 14 4.13271 14 5.00003Z" fill="#2E57DB"/></symbol><symbol viewBox="0 0 24 24" fill="none" id="contact_center_gray" xmlns="http://www.w3.org/2000/svg"><path opacity="0.36" d="M19 10C16.2386 10 14 7.76142 14 5C14 2.23858 16.2386 0 19 0C21.7614 0 24 2.23858 24 5C24 7.76142 21.7614 10 19 10Z" fill="#919BB6"/><path opacity="0.36" fill-rule="evenodd" clip-rule="evenodd" d="M11 24C17.0751 24 22 19.0751 22 13C22 6.92487 17.0751 2 11 2C4.92487 2 0 6.92487 0 13C0 14.4153 0.26728 15.7681 0.754117 17.0108C0.903096 17.3911 0.961 17.8036 0.889025 18.2056L0.0663768 22.8007C-0.0565502 23.4873 0.543562 24.0857 1.22983 23.9607L5.82084 23.1249C6.22284 23.0517 6.63564 23.1085 7.0165 23.2565C8.25169 23.7366 9.59509 24 11 24ZM6 10.5C6 9.67157 6.67157 9 7.5 9H12.5C13.3284 9 14 9.67157 14 10.5C14 11.3284 13.3284 12 12.5 12H7.5C6.67157 12 6 11.3284 6 10.5ZM7.5 14C6.67157 14 6 14.6716 6 15.5C6 16.3284 6.67157 17 7.5 17H15.5C16.3284 17 17 16.3284 17 15.5C17 14.6716 16.3284 14 15.5 14H7.5Z" fill="#919BB6"/></symbol><symbol viewBox="0 0 24 24" fill="none" id="contact_gray" xmlns="http://www.w3.org/2000/svg"><path opacity="0.36" fill-rule="evenodd" clip-rule="evenodd" d="M6.5 14C8.433 14 10 12.433 10 10.5C10 8.567 8.433 7 6.5 7C4.567 7 3 8.567 3 10.5C3 12.433 4.567 14 6.5 14ZM6 16C2.68629 16 0 18.6863 0 22C0 23.1046 0.89543 24 2 24H11C12.1046 24 13 23.1046 13 22C13 18.6863 10.3137 16 7 16H6Z" fill="#919BB6"/><path opacity="0.36" d="M7 22C7 23.1046 7.89543 24 9 24L22 24C23.1046 24 24 23.1046 24 22L24 2C24 0.89543 23.1046 -4.99443e-07 22 -5.96007e-07L9 -1.7325e-06C7.89543 -1.82907e-06 7 0.895429 7 2L7 22Z" fill="#919BB6"/></symbol><symbol viewBox="0 0 24 24" fill="none" id="contragent" xmlns="http://www.w3.org/2000/svg"><path fill-rule="evenodd" clip-rule="evenodd" d="M6 13C3.79086 13 2 11.2091 2 9C2 6.79086 3.79086 5 6 5C8.20914 5 10 6.79086 10 9C10 11.2091 8.20914 13 6 13ZM6 15C9.31371 15 12 17.6863 12 21V22C12 23.1046 11.1046 24 10 24H2.5C1.11929 24 0 22.8807 0 21.5V21C0 17.6863 2.68629 15 6 15Z" fill="#FF7188"/><path d="M24 22.6667C24 23.403 23.403 24 22.6667 24L21 24L21 8L22.6667 8C23.403 8 24 8.59695 24 9.33333L24 22.6667Z" fill="#3AE7BC"/><path d="M19 22.6667C19 23.403 18.403 24 17.6667 24L7.33333 24C6.59695 24 6 23.403 6 22.6667L6 9.96179C6 9.35392 6.27646 8.77903 6.7513 8.3995L16.8342 0.340454C17.7073 -0.357406 19 0.264244 19 1.38198L19 22.6667Z" fill="#3AE7BC"/><path fill-rule="evenodd" clip-rule="evenodd" d="M6 12.9999C8.20914 12.9999 10 11.2091 10 8.99994C10 8.05515 9.67244 7.18686 9.12469 6.50244L6.7513 8.39944C6.27646 8.77897 6 9.35386 6 9.96173V12.9999ZM6 14.9999C9.31371 14.9999 12 17.6862 12 20.9999V21.9999C12 23.1045 11.1046 23.9999 10 23.9999L7.33333 23.9999C7.33257 23.9999 7.33181 23.9999 7.33106 23.9999C6.59572 23.9987 6 23.4022 6 22.6666V14.9999Z" fill="#2E57DB"/></symbol><symbol viewBox="0 0 24 24" fill="none" id="contragent_gray" xmlns="http://www.w3.org/2000/svg"><path opacity="0.36" fill-rule="evenodd" clip-rule="evenodd" d="M6 13C3.79086 13 2 11.2091 2 9C2 6.79086 3.79086 5 6 5C8.20914 5 10 6.79086 10 9C10 11.2091 8.20914 13 6 13ZM6 15C9.31371 15 12 17.6863 12 21V22C12 23.1046 11.1046 24 10 24H2.5C1.11929 24 0 22.8807 0 21.5V21C0 17.6863 2.68629 15 6 15Z" fill="#919BB6"/><path opacity="0.36" d="M24 22.6667C24 23.403 23.403 24 22.6667 24L21 24L21 8L22.6667 8C23.403 8 24 8.59695 24 9.33333L24 22.6667Z" fill="#919BB6"/><path opacity="0.36" d="M19 22.6667C19 23.403 18.403 24 17.6667 24L7.33333 24C6.59695 24 6 23.403 6 22.6667L6 9.96179C6 9.35392 6.27646 8.77903 6.7513 8.3995L16.8342 0.340454C17.7073 -0.357406 19 0.264244 19 1.38198L19 22.6667Z" fill="#919BB6"/></symbol><symbol viewBox="0 0 24 24" fill="none" id="crm" xmlns="http://www.w3.org/2000/svg"><g clip-path="url(#baclip0_33026_2006)"><path fill-rule="evenodd" clip-rule="evenodd" d="M6.5 14C8.433 14 10 12.433 10 10.5C10 8.567 8.433 7 6.5 7C4.567 7 3 8.567 3 10.5C3 12.433 4.567 14 6.5 14ZM6 16C2.68629 16 0 18.6863 0 22C0 23.1046 0.89543 24 2 24H10.6471C11.9466 24 13 22.9466 13 21.6471C13 18.5283 10.4717 16 7.35294 16H6Z" fill="#FF7188"/><path d="M8 22.5V20.3333C8 15.0874 5.5301 10.1476 1.33333 7C0.493981 6.37049 0 5.38252 0 4.33333V1.5C0 0.671573 0.671573 0 1.5 0H22.5C23.3284 0 24 0.671573 24 1.5V4.33333C24 5.38252 23.506 6.37049 22.6667 7C18.4699 10.1476 16 15.0874 16 20.3333V22.5C16 23.3284 15.3284 24 14.5 24H9.5C8.67157 24 8 23.3284 8 22.5Z" fill="#3AE7BC"/><path fill-rule="evenodd" clip-rule="evenodd" d="M7.99998 20.3333V22.5C7.99998 23.3284 8.67155 24 9.49998 24H11C12.1046 24 13 23.1046 13 22C13 18.8312 10.5436 16.2362 7.43106 16.0152C7.80484 17.4084 7.99998 18.8588 7.99998 20.3333ZM6.74628 13.9915C8.56436 13.8651 10 12.3502 10 10.5C10 8.567 8.433 7 6.5 7C5.16375 7 4.00239 7.74884 3.41269 8.84975C4.83903 10.35 5.9662 12.0959 6.74628 13.9915Z" fill="#2E57DB"/></g><defs><clipPath id="baclip0_33026_2006"><rect width="24" height="24" fill="white"/></clipPath></defs></symbol><symbol viewBox="0 0 24 24" fill="none" id="crm_gray" xmlns="http://www.w3.org/2000/svg"><g clip-path="url(#bbclip0_33026_2026)"><path opacity="0.36" fill-rule="evenodd" clip-rule="evenodd" d="M6.5 14C8.433 14 10 12.433 10 10.5C10 8.567 8.433 7 6.5 7C4.567 7 3 8.567 3 10.5C3 12.433 4.567 14 6.5 14ZM6 16C2.68629 16 0 18.6863 0 22C0 23.1046 0.89543 24 2 24H10.6471C11.9466 24 13 22.9466 13 21.6471C13 18.5283 10.4717 16 7.35294 16H6Z" fill="#919BB6"/><path opacity="0.36" d="M8 22.5V20.3333C8 15.0874 5.5301 10.1476 1.33333 7C0.493981 6.37049 0 5.38252 0 4.33333V1.5C0 0.671573 0.671573 0 1.5 0H22.5C23.3284 0 24 0.671573 24 1.5V4.33333C24 5.38252 23.506 6.37049 22.6667 7C18.4699 10.1476 16 15.0874 16 20.3333V22.5C16 23.3284 15.3284 24 14.5 24H9.5C8.67157 24 8 23.3284 8 22.5Z" fill="#919BB6"/></g><defs><clipPath id="bbclip0_33026_2026"><rect width="24" height="24" fill="white"/></clipPath></defs></symbol><symbol viewBox="0 0 24 24" fill="none" id="deal" xmlns="http://www.w3.org/2000/svg"><rect x="7" width="17" height="24" rx="2.66667" fill="#3AE7BC"/><rect y="16" width="17" height="4" rx="2" fill="#FF7188"/><path fill-rule="evenodd" clip-rule="evenodd" d="M16.4798 3.64345C17.2146 4.45509 17.165 5.72041 16.3689 6.46961L7.86895 14.4696C7.13787 15.1577 6.01734 15.1787 5.26193 14.5185L0.68502 10.5185C-0.137502 9.79967 -0.232757 8.53707 0.472262 7.69842C1.17728 6.85977 2.4156 6.76265 3.23812 7.48149L6.49018 10.3236L13.708 3.5304C14.504 2.7812 15.745 2.83181 16.4798 3.64345Z" fill="#FF7188"/><path fill-rule="evenodd" clip-rule="evenodd" d="M7 14.944V9.84381L13.708 3.5304C14.504 2.7812 15.745 2.83181 16.4798 3.64345C17.2146 4.45509 17.165 5.72041 16.3689 6.46961L7.86895 14.4696C7.6156 14.7081 7.31548 14.8664 7 14.944ZM7 20V16H15C16.1046 16 17 16.8954 17 18C17 19.1046 16.1046 20 15 20H7Z" fill="#2E57DB"/></symbol><symbol viewBox="0 0 24 24" fill="none" id="deal_gray" xmlns="http://www.w3.org/2000/svg"><rect opacity="0.36" x="7" width="17" height="24" rx="2.66667" fill="#919BB6"/><rect opacity="0.36" y="16" width="17" height="4" rx="2" fill="#919BB6"/><path opacity="0.36" fill-rule="evenodd" clip-rule="evenodd" d="M16.4798 3.64345C17.2146 4.45509 17.165 5.72041 16.3689 6.46961L7.86895 14.4696C7.13787 15.1577 6.01734 15.1787 5.26193 14.5185L0.68502 10.5185C-0.137502 9.79967 -0.232757 8.53707 0.472262 7.69842C1.17728 6.85977 2.4156 6.76265 3.23812 7.48149L6.49018 10.3236L13.708 3.5304C14.504 2.7812 15.745 2.83181 16.4798 3.64345Z" fill="#919BB6"/></symbol><symbol viewBox="0 0 24 24" fill="none" id="dev" xmlns="http://www.w3.org/2000/svg"><rect y="5" width="24" height="14" rx="3" fill="#3AE7BC"/><rect x="7" y="21" width="10" height="3" rx="1.5" fill="#3AE7BC"/><path fill-rule="evenodd" clip-rule="evenodd" d="M13.5052 3.32875C12.7713 2.50318 12.8457 1.23904 13.6713 0.505203C14.4968 -0.228633 15.761 -0.154272 16.4948 0.671294L20.4948 5.17129C21.1684 5.92907 21.1684 7.07098 20.4948 7.82875L16.4948 12.3287C15.761 13.1543 14.4968 13.2287 13.6713 12.4948C12.8457 11.761 12.7713 10.4969 13.5052 9.67129L16.3241 6.50002L13.5052 3.32875ZM10.4948 3.32882C11.2287 2.50326 11.1543 1.23911 10.3287 0.505277C9.50316 -0.22856 8.23902 -0.154198 7.50518 0.671367L3.50518 5.17137C2.83161 5.92914 2.83161 7.07105 3.50518 7.82882L7.50518 12.3288C8.23902 13.1544 9.50316 13.2287 10.3287 12.4949C11.1543 11.7611 11.2287 10.4969 10.4948 9.67137L7.67591 6.50009L10.4948 3.32882Z" fill="#FF7188"/><path fill-rule="evenodd" clip-rule="evenodd" d="M20.3426 5L20.4948 5.17129C21.1684 5.92907 21.1684 7.07098 20.4948 7.82875L16.4948 12.3287C15.761 13.1543 14.4968 13.2287 13.6713 12.4948C12.8457 11.761 12.7713 10.4969 13.5052 9.67129L16.3241 6.50002L14.9907 5H20.3426ZM3.65751 5H9.00933L7.67591 6.50009L10.4948 9.67137C11.2287 10.4969 11.1543 11.7611 10.3287 12.4949C9.50316 13.2287 8.23902 13.1544 7.50518 12.3288L3.50518 7.82882C2.83161 7.07105 2.83161 5.92914 3.50518 5.17137L3.65751 5Z" fill="#2E57DB"/></symbol><symbol viewBox="0 0 24 24" fill="none" id="estimates" xmlns="http://www.w3.org/2000/svg"><path d="M23.5 15.134C24.1667 15.5189 24.1667 16.4811 23.5 16.866L11.5 23.7942C10.8333 24.1791 10 23.698 10 22.9282L10 9.0718C10 8.302 10.8333 7.82087 11.5 8.20577L23.5 15.134Z" fill="#FF7188"/><path d="M16 1.5C16 0.671573 15.3284 -5.20195e-08 14.5 -1.16189e-07L1.5 -1.12316e-06C0.671575 -1.18733e-06 1.90059e-06 0.671572 1.89225e-06 1.5L1.67654e-06 22.9318C1.6688e-06 23.6999 0.830029 24.1813 1.49669 23.7997L15.4967 15.788C15.808 15.6099 16 15.2787 16 14.9201L16 1.5Z" fill="#3AE7BC"/><path fill-rule="evenodd" clip-rule="evenodd" d="M10 18.9336L15.4967 15.788C15.808 15.6099 16 15.2787 16 14.9201L16 10.8038L11.5 8.20577C10.8333 7.82087 10 8.302 10 9.0718V18.9336Z" fill="#2E57DB"/></symbol><symbol viewBox="0 0 24 24" fill="none" id="estimates_gray" xmlns="http://www.w3.org/2000/svg"><path opacity="0.36" d="M23.5 15.134C24.1667 15.5189 24.1667 16.4811 23.5 16.866L11.5 23.7942C10.8333 24.1791 10 23.698 10 22.9282L10 9.0718C10 8.302 10.8333 7.82087 11.5 8.20577L23.5 15.134Z" fill="#919BB6"/><path opacity="0.36" d="M16 1.5C16 0.671573 15.3284 -5.20195e-08 14.5 -1.16189e-07L1.5 -1.12316e-06C0.671575 -1.18733e-06 1.90059e-06 0.671572 1.89225e-06 1.5L1.67654e-06 22.9318C1.6688e-06 23.6999 0.830029 24.1813 1.49669 23.7997L15.4967 15.788C15.808 15.6099 16 15.2787 16 14.9201L16 1.5Z" fill="#919BB6"/></symbol><symbol viewBox="0 0 24 24" fill="none" id="feed" xmlns="http://www.w3.org/2000/svg"><rect x="8" width="16" height="24" rx="2" fill="#3AE7BC"/><path fill-rule="evenodd" clip-rule="evenodd" d="M8 19.364L1.31802 12.682C0.43934 11.8033 0 10.6517 0 9.5C0 8.34835 0.43934 7.1967 1.31802 6.31802C3.07538 4.56066 5.92462 4.56066 7.68198 6.31802L8 6.63604V19.364Z" fill="#FF7188"/><path fill-rule="evenodd" clip-rule="evenodd" d="M8 19.364L14.682 12.682C15.5607 11.8033 16 10.6517 16 9.5C16 8.34835 15.5607 7.1967 14.682 6.31802C12.9246 4.56066 10.0754 4.56066 8.31802 6.31802L8 6.63604V19.364Z" fill="#2E57DB"/></symbol><symbol viewBox="0 0 24 24" fill="none" id="feed_gray" xmlns="http://www.w3.org/2000/svg"><rect opacity="0.36" x="8" width="16" height="24" rx="2" fill="#919BB6"/><path opacity="0.36" fill-rule="evenodd" clip-rule="evenodd" d="M8 19.364L1.31802 12.682C0.43934 11.8033 0 10.6517 0 9.5C0 8.34835 0.43934 7.1967 1.31802 6.31802C3.07538 4.56066 5.92462 4.56066 7.68198 6.31802L8 6.63604V19.364Z" fill="#919BB6"/><path opacity="0.36" fill-rule="evenodd" clip-rule="evenodd" d="M8 19.364L14.682 12.682C15.5607 11.8033 16 10.6517 16 9.5C16 8.34835 15.5607 7.1967 14.682 6.31802C12.9246 4.56066 10.0754 4.56066 8.31802 6.31802L8 6.63604V19.364Z" fill="#919BB6"/></symbol><symbol viewBox="0 0 24 24" fill="none" id="files" xmlns="http://www.w3.org/2000/svg"><path fill-rule="evenodd" clip-rule="evenodd" d="M18.2316 8.52855C19.4944 7.26569 21.5419 7.2657 22.8048 8.52855C24.0677 9.79141 24.0677 11.8389 22.8048 13.1018L13.8942 22.0124C13.467 22.4396 12.9317 22.7426 12.3456 22.8892L8.22165 23.9201C7.99446 23.9769 7.75414 23.9104 7.58855 23.7448C7.42296 23.5792 7.3564 23.3389 7.41319 23.1117L8.44418 18.9877C8.59071 18.4016 8.89377 17.8664 9.32097 17.4392L18.2316 8.52855Z" fill="#FF7188"/><path d="M0 5.66667C0 4.19391 1.19391 3 2.66667 3H9.46916C10.2309 3 10.9562 2.67427 11.4622 2.10497L12.5378 0.89503C13.0438 0.325728 13.7691 0 14.5308 0H17.3333C18.8061 0 20 1.19391 20 2.66667V16.3333C20 17.8061 18.8061 19 17.3333 19H2.66667C1.19391 19 0 17.8061 0 16.3333V5.66667Z" fill="#3AE7BC"/><path fill-rule="evenodd" clip-rule="evenodd" d="M16.9066 19.0001H8.44116L8.44424 18.9878C8.59077 18.4017 8.89383 17.8664 9.32103 17.4392L18.2316 8.52864C18.7308 8.02946 19.3526 7.7276 20 7.62305V15.9067L16.9066 19.0001Z" fill="#2E57DB"/></symbol><symbol viewBox="0 0 24 24" fill="none" id="files_gray" xmlns="http://www.w3.org/2000/svg"><path opacity="0.36" fill-rule="evenodd" clip-rule="evenodd" d="M18.2316 8.52855C19.4944 7.26569 21.5419 7.2657 22.8048 8.52855C24.0677 9.79141 24.0677 11.8389 22.8048 13.1018L13.8942 22.0124C13.467 22.4396 12.9317 22.7426 12.3456 22.8892L8.22165 23.9201C7.99446 23.9769 7.75414 23.9104 7.58855 23.7448C7.42296 23.5792 7.3564 23.3389 7.41319 23.1117L8.44418 18.9877C8.59071 18.4016 8.89377 17.8664 9.32097 17.4392L18.2316 8.52855Z" fill="#919BB6"/><path opacity="0.36" d="M0 5.66667C0 4.19391 1.19391 3 2.66667 3H9.46916C10.2309 3 10.9562 2.67427 11.4622 2.10497L12.5378 0.89503C13.0438 0.325728 13.7691 0 14.5308 0H17.3333C18.8061 0 20 1.19391 20 2.66667V16.3333C20 17.8061 18.8061 19 17.3333 19H2.66667C1.19391 19 0 17.8061 0 16.3333V5.66667Z" fill="#919BB6"/></symbol><symbol viewBox="0 0 24 24" fill="none" id="finance" xmlns="http://www.w3.org/2000/svg"><g clip-path="url(#blclip0_33026_1456)"><path fill-rule="evenodd" clip-rule="evenodd" d="M5.73223 5.73223C6.70854 4.75592 8.29146 4.75592 9.26777 5.73223L14.2678 10.7322C15.2441 11.7085 15.2441 13.2915 14.2678 14.2678C13.2915 15.2441 11.7085 15.2441 10.7322 14.2678L10 13.5355V21.5C10 22.8807 8.88071 24 7.5 24C6.11929 24 5 22.8807 5 21.5V13.5355L4.26777 14.2678C3.29146 15.2441 1.70854 15.2441 0.732233 14.2678C-0.244078 13.2915 -0.244078 11.7085 0.732233 10.7322L5.73223 5.73223Z" fill="#FF7188"/><path fill-rule="evenodd" clip-rule="evenodd" d="M24 5C24 7.76142 21.7614 10 19 10C16.2386 10 14 7.76142 14 5C14 2.23858 16.2386 0 19 0C21.7614 0 24 2.23858 24 5ZM22.8933 24C23.479 24 24 23.5857 24 23C24 20.2386 21.7614 18 19 18C16.2386 18 14 20.2386 14 23C14 23.5857 14.521 24 15.1067 24H22.8933ZM10 19C12.7614 19 15 16.7614 15 14C15 11.2386 12.7614 9 10 9C7.23858 9 5 11.2386 5 14C5 16.7614 7.23858 19 10 19Z" fill="#3AE7BC"/><path fill-rule="evenodd" clip-rule="evenodd" d="M10 19C7.23858 19 5 16.7614 5 14C5 11.2386 7.23858 9 10 9C12.4608 9 14.5063 10.7776 14.9226 13.1188C14.8155 13.5398 14.5972 13.9383 14.2678 14.2678C13.2915 15.2441 11.7085 15.2441 10.7322 14.2678L10 13.5355V19Z" fill="#2E57DB"/></g><defs><clipPath id="blclip0_33026_1456"><rect width="24" height="24" fill="white"/></clipPath></defs></symbol><symbol viewBox="0 0 24 24" fill="none" id="finance_gray" xmlns="http://www.w3.org/2000/svg"><g clip-path="url(#bmclip0_33026_1475)"><path opacity="0.36" fill-rule="evenodd" clip-rule="evenodd" d="M5.73223 5.73223C6.70854 4.75592 8.29146 4.75592 9.26777 5.73223L14.2678 10.7322C15.2441 11.7085 15.2441 13.2915 14.2678 14.2678C13.2915 15.2441 11.7085 15.2441 10.7322 14.2678L10 13.5355V21.5C10 22.8807 8.88071 24 7.5 24C6.11929 24 5 22.8807 5 21.5V13.5355L4.26777 14.2678C3.29146 15.2441 1.70854 15.2441 0.732233 14.2678C-0.244078 13.2915 -0.244078 11.7085 0.732233 10.7322L5.73223 5.73223Z" fill="#919BB6"/><path opacity="0.36" fill-rule="evenodd" clip-rule="evenodd" d="M24 5C24 7.76142 21.7614 10 19 10C16.2386 10 14 7.76142 14 5C14 2.23858 16.2386 0 19 0C21.7614 0 24 2.23858 24 5ZM22.8933 24C23.479 24 24 23.5857 24 23C24 20.2386 21.7614 18 19 18C16.2386 18 14 20.2386 14 23C14 23.5857 14.521 24 15.1067 24H22.8933ZM10 19C12.7614 19 15 16.7614 15 14C15 11.2386 12.7614 9 10 9C7.23858 9 5 11.2386 5 14C5 16.7614 7.23858 19 10 19Z" fill="#919BB6"/></g><defs><clipPath id="bmclip0_33026_1475"><rect width="24" height="24" fill="white"/></clipPath></defs></symbol><symbol viewBox="0 0 24 24" fill="none" id="hr" xmlns="http://www.w3.org/2000/svg"><path fill-rule="evenodd" clip-rule="evenodd" d="M6 12C7.65685 12 9 10.6569 9 9C9 7.34315 7.65685 6 6 6C4.34315 6 3 7.34315 3 9C3 10.6569 4.34315 12 6 12ZM0 20C0 16.6863 2.68629 14 6 14C9.31371 14 12 16.6863 12 20V22C12 23.1046 11.1046 24 10 24H2C0.895431 24 0 23.1046 0 22V20Z" fill="#FF7188"/><path fill-rule="evenodd" clip-rule="evenodd" d="M15 10C17.7614 10 20 7.76142 20 5C20 2.23858 17.7614 0 15 0C12.2386 0 10 2.23858 10 5C10 7.76142 12.2386 10 15 10ZM6 21C6 16.0294 10.0294 12 15 12C19.9706 12 24 16.0294 24 21V22C24 23.1046 23.1046 24 22 24H8C6.89543 24 6 23.1046 6 22V21Z" fill="#3AE7BC"/><path fill-rule="evenodd" clip-rule="evenodd" d="M8.65448 14.6177C7.01497 16.2478 6 18.5054 6 21V24H10.0034C11.1064 23.9982 12 23.1035 12 22V20C12 17.6394 10.6367 15.5971 8.65448 14.6177Z" fill="#2E57DB"/></symbol><symbol viewBox="0 0 24 24" fill="none" id="hr_gray" xmlns="http://www.w3.org/2000/svg"><path opacity="0.36" fill-rule="evenodd" clip-rule="evenodd" d="M6 12C7.65685 12 9 10.6569 9 9C9 7.34315 7.65685 6 6 6C4.34315 6 3 7.34315 3 9C3 10.6569 4.34315 12 6 12ZM0 20C0 16.6863 2.68629 14 6 14C9.31371 14 12 16.6863 12 20V22C12 23.1046 11.1046 24 10 24H2C0.895431 24 0 23.1046 0 22V20Z" fill="#919BB6"/><path opacity="0.36" fill-rule="evenodd" clip-rule="evenodd" d="M15 10C17.7614 10 20 7.76142 20 5C20 2.23858 17.7614 0 15 0C12.2386 0 10 2.23858 10 5C10 7.76142 12.2386 10 15 10ZM15 12C10.0294 12 6 16.0294 6 21V24H22.2857C23.2325 24 24 23.2325 24 22.2857V21C24 16.0294 19.9706 12 15 12Z" fill="#919BB6"/></symbol><symbol viewBox="0 0 24 24" fill="none" id="idea" xmlns="http://www.w3.org/2000/svg"><path d="M18 19.8C18.3802 18.0017 19.6087 16.535 20.9605 15.2896C22.7215 13.6672 24 11.4477 24 9C24 4.02944 19.9706 0 15 0C10.0294 0 6 4.02944 6 9C6 11.4477 7.27849 13.6672 9.0395 15.2896C10.3913 16.535 11.6198 18.0017 12 19.8V19.8L12.2337 23.0712C12.271 23.5946 12.7065 24 13.2311 24H16.5327C17.0304 24 17.4523 23.6341 17.5227 23.1414L18 19.8V19.8Z" fill="#3AE7BC"/><path d="M9.43478 21C9.62518 19.4986 10.6036 18.2492 11.7342 17.2431C13.0466 16.075 14 14.5205 14 12.75C14 9.02208 10.866 6 7 6C3.13401 6 0 9.02208 0 12.75C0 14.5205 0.953353 16.075 2.26582 17.2431C3.39638 18.2492 4.37482 19.4986 4.56522 21V21L4.77836 23.1009C4.83015 23.6115 5.26005 24 5.77325 24H8.22675C8.73995 24 9.16985 23.6115 9.22164 23.1009L9.43478 21V21Z" fill="#FF7188"/><path fill-rule="evenodd" clip-rule="evenodd" d="M11.1732 17.7781C11.3537 17.5927 11.5417 17.4143 11.7342 17.2431C13.0466 16.075 14 14.5205 14 12.75C14 9.02208 10.866 6 7 6C6.83402 6 6.66939 6.00557 6.50629 6.01653C6.17835 6.95019 6 7.95427 6 9C6 11.4477 7.27849 13.6672 9.0395 15.2896C9.84588 16.0326 10.6084 16.8542 11.1732 17.7781Z" fill="#2E57DB"/></symbol><symbol viewBox="0 0 24 24" fill="none" id="idea_gray" xmlns="http://www.w3.org/2000/svg"><path opacity="0.36" d="M18 19.8C18.3802 18.0017 19.6087 16.535 20.9605 15.2896C22.7215 13.6672 24 11.4477 24 9C24 4.02944 19.9706 0 15 0C10.0294 0 6 4.02944 6 9C6 11.4477 7.27849 13.6672 9.0395 15.2896C10.3913 16.535 11.6198 18.0017 12 19.8V19.8L12.2337 23.0712C12.271 23.5946 12.7065 24 13.2311 24H16.5327C17.0304 24 17.4523 23.6341 17.5227 23.1414L18 19.8V19.8Z" fill="#919BB6"/><path opacity="0.36" d="M9.43478 21C9.62518 19.4986 10.6036 18.2492 11.7342 17.2431C13.0466 16.075 14 14.5205 14 12.75C14 9.02208 10.866 6 7 6C3.13401 6 0 9.02208 0 12.75C0 14.5205 0.953353 16.075 2.26582 17.2431C3.39638 18.2492 4.37482 19.4986 4.56522 21V21L4.77836 23.1009C4.83015 23.6115 5.26005 24 5.77325 24H8.22675C8.73995 24 9.16985 23.6115 9.22164 23.1009L9.43478 21V21Z" fill="#919BB6"/></symbol><symbol viewBox="0 0 24 24" fill="none" id="invoice_acts" xmlns="http://www.w3.org/2000/svg"><ellipse cx="6.5" cy="10.5" rx="6.5" ry="6.5" transform="rotate(-180 6.5 10.5)" fill="#FF7188"/><path d="M6 22.6667V1.33333C6 0.596954 6.59695 0 7.33333 0H22.6667C23.403 0 24 0.596954 24 1.33333V22.6667C24 23.403 23.403 24 22.6667 24H22.5525C22.2416 24 21.9405 23.8913 21.7012 23.6928L19.7085 22.0396C19.2148 21.6301 18.4995 21.6301 18.0058 22.0396L16.0131 23.6928C15.7738 23.8913 15.4727 24 15.1618 24H14.8382C14.5273 24 14.2262 23.8913 13.9869 23.6928L11.9942 22.0396C11.5005 21.6301 10.7852 21.6301 10.2915 22.0396L8.29882 23.6928C8.05954 23.8913 7.7584 24 7.44749 24H7.33333C6.59695 24 6 23.403 6 22.6667Z" fill="#3AE7BC"/><path fill-rule="evenodd" clip-rule="evenodd" d="M6 4.01894C6.16502 4.00639 6.33176 4 6.5 4C10.0899 4 13 6.91015 13 10.5C13 14.0899 10.0899 17 6.5 17C6.33176 17 6.16502 16.9936 6 16.9811V4.01894Z" fill="#2E57DB"/></symbol><symbol viewBox="0 0 24 24" fill="none" id="invoice_acts_gray" xmlns="http://www.w3.org/2000/svg"><ellipse opacity="0.36" cx="6.5" cy="10.5" rx="6.5" ry="6.5" transform="rotate(-180 6.5 10.5)" fill="#919BB6"/><path opacity="0.36" d="M6 22.6667V1.33333C6 0.596954 6.59695 0 7.33333 0H22.6667C23.403 0 24 0.596954 24 1.33333V22.6667C24 23.403 23.403 24 22.6667 24H22.5525C22.2416 24 21.9405 23.8913 21.7012 23.6928L19.7085 22.0396C19.2148 21.6301 18.4995 21.6301 18.0058 22.0396L16.0131 23.6928C15.7738 23.8913 15.4727 24 15.1618 24H14.8382C14.5273 24 14.2262 23.8913 13.9869 23.6928L11.9942 22.0396C11.5005 21.6301 10.7852 21.6301 10.2915 22.0396L8.29882 23.6928C8.05954 23.8913 7.7584 24 7.44749 24H7.33333C6.59695 24 6 23.403 6 22.6667Z" fill="#919BB6"/></symbol><symbol viewBox="0 0 24 24" fill="none" id="ip" xmlns="http://www.w3.org/2000/svg"><path fill-rule="evenodd" clip-rule="evenodd" d="M17.0619 21.5665L15.0359 23.4895C14.0432 24.4393 12.7828 23.9254 11.8857 23.0739C10.5951 21.849 9.56313 20.4716 8.78967 19.0028H17.0003C17.0478 19.0028 17.0952 19.0023 17.1425 19.0014C17.1841 19.0548 17.2263 19.1078 17.2689 19.1606C17.5514 19.5165 17.6863 19.9583 17.6481 20.4019C17.61 20.8455 17.4013 21.2599 17.0619 21.5665ZM17.1132 5.00423C17.1595 4.94458 17.2064 4.88533 17.254 4.8265C17.5325 4.47484 17.6667 4.03878 17.6314 3.5996C17.5961 3.16042 17.3938 2.74808 17.0622 2.43945L15.0321 0.51264C14.006 -0.459529 12.7575 0.104745 11.8856 0.932367C10.5951 2.15726 9.56315 3.53461 8.78971 5.00334H17.0003C17.038 5.00334 17.0757 5.00364 17.1132 5.00423Z" fill="#FF7188"/><rect y="5" width="24" height="14" rx="7" fill="#3AE7BC"/><path fill-rule="evenodd" clip-rule="evenodd" d="M8.78965 19H17C17.0476 19 17.0951 18.9995 17.1424 18.9986C16.6329 18.3455 16.1964 17.6436 15.8402 16.9043C15.6889 16.5881 15.4453 16.3196 15.1384 16.1305C14.8315 15.9415 14.4741 15.8398 14.1085 15.8375C13.0939 15.8365 12.1871 15.1949 12.0283 14.2437C11.7787 12.7478 11.777 11.2242 12.0234 9.72871C12.1801 8.77796 13.0866 8.13662 14.1005 8.13758C14.466 8.13598 14.8232 8.03495 15.1297 7.84646C15.4363 7.65796 15.6792 7.38991 15.8299 7.07405C16.1812 6.34249 16.6113 5.64775 17.1132 5.0009C17.0756 5.0003 17.0378 5 17 5H8.78971C6.47588 9.39405 6.47586 14.6059 8.78965 19Z" fill="#2E57DB"/></symbol><symbol viewBox="0 0 24 24" fill="none" id="ip_gray" xmlns="http://www.w3.org/2000/svg"><path opacity="0.36" d="M15.0359 23.4895L17.0619 21.5665C17.4013 21.2599 17.61 20.8455 17.6481 20.4019C17.6863 19.9583 17.5514 19.5165 17.2689 19.1606C16.7048 18.4628 16.2255 17.7068 15.8402 16.9071C15.6889 16.591 15.4453 16.3225 15.1384 16.1334C14.8315 15.9443 14.4741 15.8426 14.1085 15.8404C13.0939 15.8394 12.1871 15.1978 12.0283 14.2467C11.7787 12.7508 11.777 11.2273 12.0234 9.73184C12.1801 8.78112 13.0866 8.13981 14.1005 8.14077C14.466 8.13917 14.8232 8.03814 15.1297 7.84966C15.4363 7.66117 15.6792 7.39313 15.8299 7.07729C16.2136 6.27829 16.6913 5.52322 17.254 4.8265C17.5325 4.47484 17.6667 4.03878 17.6314 3.5996C17.5961 3.16042 17.3938 2.74808 17.0622 2.43945L15.0321 0.51264C14.006 -0.459529 12.7574 0.104745 11.8856 0.932367C5.44386 7.04661 5.4439 16.9597 11.8857 23.0739C12.7828 23.9254 14.0432 24.4393 15.0359 23.4895Z" fill="#919BB6"/><rect opacity="0.36" y="5" width="24" height="14" rx="7" fill="#919BB6"/></symbol><symbol viewBox="0 0 24 24" fill="none" id="knowledge" xmlns="http://www.w3.org/2000/svg"><path d="M16 11C16 7.68629 13.3137 5 10 5H2.5C1.11929 5 0 6.11929 0 7.5V16.5C0 17.8807 1.11929 19 2.5 19H13.3386C14.3175 19 15.2632 19.3553 16 20V20V11Z" fill="#FF7188"/><path d="M7 4C7 1.79086 8.79086 0 11 0H21.5C22.8807 0 24 1.11929 24 2.5V20.5C24 21.8807 22.8807 23 21.5 23H11.3355C10.4605 23 9.60082 23.2296 8.84235 23.6659L8.49864 23.8637C7.83197 24.2472 7 23.766 7 22.9969V4Z" fill="#3AE7BC"/><path fill-rule="evenodd" clip-rule="evenodd" d="M7.08293 5C7.02837 5.32521 6.99997 5.65929 6.99997 6V19H12.694C13.5303 19 14.3322 19.3322 14.9235 19.9235C15.3208 20.3208 16 20.0394 16 19.4776V9C16 6.79086 14.2092 5 12 5H7.08293Z" fill="#2E57DB"/></symbol><symbol viewBox="0 0 24 24" fill="none" id="knowledge_gray" xmlns="http://www.w3.org/2000/svg"><path opacity="0.36" d="M16 11C16 7.68629 13.3137 5 10 5H2.5C1.11929 5 0 6.11929 0 7.5V16.5C0 17.8807 1.11929 19 2.5 19H13.3386C14.3175 19 15.2632 19.3553 16 20V20V11Z" fill="#919BB6"/><path opacity="0.36" d="M7 4C7 1.79086 8.79086 0 11 0H21.5C22.8807 0 24 1.11929 24 2.5V20.5C24 21.8807 22.8807 23 21.5 23H11.3355C10.4605 23 9.60082 23.2296 8.84235 23.6659L8.49864 23.8637C7.83197 24.2472 7 23.766 7 22.9969V4Z" fill="#919BB6"/></symbol><symbol viewBox="0 0 24 24" fill="none" id="kpi" xmlns="http://www.w3.org/2000/svg"><path d="M8 11.1362V22.0001C8 23.1047 8.89543 24.0001 10 24.0001H22C23.1046 24.0001 24 23.1047 24 22.0001V1.10102C24 0.148014 22.7934 -0.264833 22.2096 0.488406L17.7486 6.24394C16.9073 7.32937 15.238 7.22998 14.5314 6.05239C13.8082 4.84701 12.0865 4.77795 11.2691 5.92154L8.37294 9.97312C8.13039 10.3124 8 10.7191 8 11.1362Z" fill="#3AE7BC"/><path d="M0 19.4376V22C0 23.1046 0.895431 24 2 24H17C18.1046 24 19 23.1046 19 22V11.1174C19 10.1994 17.8668 9.76649 17.2548 10.4506L12.0443 16.274C11.2304 17.1836 9.79872 17.1585 9.01735 16.2208L7.05078 13.8609C6.24643 12.8957 4.76177 12.9025 3.96627 13.875L0.451936 18.1713C0.159673 18.5286 0 18.976 0 19.4376Z" fill="#FF7188"/><path fill-rule="evenodd" clip-rule="evenodd" d="M17.0021 24.0001C18.1057 23.9991 19.0001 23.104 19.0001 22.0001V11.1175C19.0001 10.1996 17.8669 9.76663 17.2549 10.4507L12.0444 16.2742C11.2305 17.1838 9.79881 17.1586 9.01744 16.221L8.00009 15.0001V22.0001C8.00009 23.1047 8.89552 24.0001 10.0001 24.0001L17.0001 24.0001C17.0007 24.0001 17.0014 24.0001 17.0021 24.0001Z" fill="#2E57DB"/></symbol><symbol viewBox="0 0 24 24" fill="none" id="kpi_gray" xmlns="http://www.w3.org/2000/svg"><path opacity="0.36" d="M8 11.1362V22.0001C8 23.1047 8.89543 24.0001 10 24.0001H22C23.1046 24.0001 24 23.1047 24 22.0001V1.10102C24 0.148014 22.7934 -0.264833 22.2096 0.488406L17.7486 6.24394C16.9073 7.32937 15.238 7.22998 14.5314 6.05239C13.8082 4.84701 12.0865 4.77795 11.2691 5.92154L8.37294 9.97312C8.13039 10.3124 8 10.7191 8 11.1362Z" fill="#919BB6"/><path opacity="0.36" d="M0 19.4376V22C0 23.1046 0.895431 24 2 24H17C18.1046 24 19 23.1046 19 22V11.1174C19 10.1994 17.8668 9.76649 17.2548 10.4506L12.0443 16.274C11.2304 17.1836 9.79872 17.1585 9.01735 16.2208L7.05078 13.8609C6.24643 12.8957 4.76177 12.9025 3.96627 13.875L0.451936 18.1713C0.159673 18.5286 0 18.976 0 19.4376Z" fill="#919BB6"/></symbol><symbol viewBox="0 0 24 24" fill="none" id="library" xmlns="http://www.w3.org/2000/svg"><path d="M20.5 2C21.8807 2 23 3.11929 23 4.5L23 21.5C23 22.8807 21.8807 24 20.5 24L7 24C6.44772 24 6 23.5523 6 23L6 3C6 2.44771 6.44772 2 7 2L20.5 2Z" fill="#3AE7BC"/><path d="M11 1C11 0.447715 11.4477 0 12 0H18C18.5523 0 19 0.447715 19 1V11.989C19 12.8523 17.9796 13.31 17.3349 12.7358L15.6651 11.2486C15.286 10.9109 14.714 10.9109 14.3349 11.2486L12.6651 12.7358C12.0204 13.31 11 12.8523 11 11.989V1Z" fill="#FF7188"/><path d="M3.25 2C3.66421 2 4 2.33579 4 2.75L4 23.25C4 23.6642 3.66421 24 3.25 24C2.00736 24 1 22.9926 1 21.75L1 4.25C1 3.00736 2.00736 2 3.25 2Z" fill="#3AE7BC"/><path fill-rule="evenodd" clip-rule="evenodd" d="M19 2V11.989C19 12.8523 17.9796 13.31 17.3349 12.7358L15.6651 11.2486C15.286 10.9109 14.714 10.9109 14.3349 11.2486L12.6651 12.7358C12.0204 13.31 11 12.8523 11 11.989V2H19Z" fill="#2E57DB"/></symbol><symbol viewBox="0 0 24 24" fill="none" id="list" xmlns="http://www.w3.org/2000/svg"><path fill-rule="evenodd" clip-rule="evenodd" d="M10 0C7.23858 0 5 2.23858 5 5C5 7.76142 7.23858 10 10 10H19C21.7614 10 24 7.76142 24 5C24 2.23858 21.7614 0 19 0H10ZM10 14C7.23858 14 5 16.2386 5 19C5 21.7614 7.23858 24 10 24H16C18.7614 24 21 21.7614 21 19C21 16.2386 18.7614 14 16 14H10Z" fill="#3AE7BC"/><path fill-rule="evenodd" clip-rule="evenodd" d="M5 0C2.23858 0 0 2.23858 0 5C0 7.76142 2.23858 10 5 10C7.76142 10 10 7.76142 10 5C10 2.23858 7.76142 0 5 0ZM5 14C2.23858 14 0 16.2386 0 19C0 21.7614 2.23858 24 5 24C7.76142 24 10 21.7614 10 19C10 16.2386 7.76142 14 5 14Z" fill="#FF7188"/><path fill-rule="evenodd" clip-rule="evenodd" d="M7.50002 0.668945C6.00551 1.53347 5 3.14933 5 5.00005C5 6.85076 6.00551 8.46662 7.50002 9.33115C8.99454 8.46662 10 6.85076 10 5.00005C10 3.14933 8.99453 1.53347 7.50002 0.668945ZM7.50002 14.6689C6.00551 15.5335 5 17.1493 5 19C5 20.8508 6.00551 22.4666 7.50002 23.3311C8.99454 22.4666 10 20.8508 10 19C10 17.1493 8.99454 15.5335 7.50002 14.6689Z" fill="#2E57DB"/></symbol><symbol viewBox="0 0 24 24" fill="none" id="list_gray" xmlns="http://www.w3.org/2000/svg"><path opacity="0.36" fill-rule="evenodd" clip-rule="evenodd" d="M10 0C7.23858 0 5 2.23858 5 5C5 7.76142 7.23858 10 10 10H19C21.7614 10 24 7.76142 24 5C24 2.23858 21.7614 0 19 0H10ZM10 14C7.23858 14 5 16.2386 5 19C5 21.7614 7.23858 24 10 24H16C18.7614 24 21 21.7614 21 19C21 16.2386 18.7614 14 16 14H10Z" fill="#919BB6"/><path opacity="0.36" fill-rule="evenodd" clip-rule="evenodd" d="M5 0C2.23858 0 0 2.23858 0 5C0 7.76142 2.23858 10 5 10C7.76142 10 10 7.76142 10 5C10 2.23858 7.76142 0 5 0ZM5 14C2.23858 14 0 16.2386 0 19C0 21.7614 2.23858 24 5 24C7.76142 24 10 21.7614 10 19C10 16.2386 7.76142 14 5 14Z" fill="#919BB6"/></symbol><symbol viewBox="0 0 24 24" fill="none" id="mail" xmlns="http://www.w3.org/2000/svg"><g clip-path="url(#ccclip0_33028_17898)"><path d="M12 6C12 9.31371 9.31371 12 6 12C2.68629 12 0 9.31371 0 6C0 2.68629 2.68629 0 6 0C9.31371 0 12 2.68629 12 6Z" fill="#FF7188"/><path fill-rule="evenodd" clip-rule="evenodd" d="M21.3333 8C22.8061 8 24 9.19391 24 10.6667V13.7233L14 17.2527L4 13.7233V10.6667C4 9.19391 5.19391 8 6.66667 8H21.3333ZM4 16.5512V21.3333C4 22.8061 5.19391 24 6.66667 24H21.3333C22.8061 24 24 22.8061 24 21.3333V16.5512L14.4438 19.924L14 20.0806L13.5562 19.924L4 16.5512Z" fill="#3AE7BC"/><path fill-rule="evenodd" clip-rule="evenodd" d="M3.99998 11.6586V10.6667C3.99998 9.19391 5.19389 8 6.66665 8H11.6586C10.8349 10.3304 8.61242 12 5.99998 12C5.29871 12 4.62554 11.8797 3.99998 11.6586Z" fill="#2E57DB"/></g><defs><clipPath id="ccclip0_33028_17898"><rect width="24" height="24" fill="white"/></clipPath></defs></symbol><symbol viewBox="0 0 24 24" fill="none" id="mail_gray" xmlns="http://www.w3.org/2000/svg"><g clip-path="url(#cdclip0_33028_17910)"><path opacity="0.36" d="M12 6C12 9.31371 9.31371 12 6 12C2.68629 12 0 9.31371 0 6C0 2.68629 2.68629 0 6 0C9.31371 0 12 2.68629 12 6Z" fill="#919BB6"/><path opacity="0.36" fill-rule="evenodd" clip-rule="evenodd" d="M21.3333 8C22.8061 8 24 9.19391 24 10.6667V13.7233L14 17.2527L4 13.7233V10.6667C4 9.19391 5.19391 8 6.66667 8H21.3333ZM4 16.5512V21.3333C4 22.8061 5.19391 24 6.66667 24H21.3333C22.8061 24 24 22.8061 24 21.3333V16.5512L14.4438 19.924L14 20.0806L13.5562 19.924L4 16.5512Z" fill="#919BB6"/></g><defs><clipPath id="cdclip0_33028_17910"><rect width="24" height="24" fill="white"/></clipPath></defs></symbol><symbol viewBox="0 0 24 24" fill="none" id="mind_map" xmlns="http://www.w3.org/2000/svg"><g clip-path="url(#ceclip0_33029_18120)"><rect x="4" y="16" width="12" height="8" rx="1.33333" fill="#FF7188"/><circle cx="19" cy="10" r="5" fill="#FF7188"/><rect x="-1.08337" y="9.98047" width="15.7193" height="15.7193" rx="2.66667" transform="rotate(-45 -1.08337 9.98047)" fill="#3AE7BC"/><path fill-rule="evenodd" clip-rule="evenodd" d="M15.0665 16.0611L11.9174 19.2102C10.876 20.2516 9.18757 20.2516 8.14618 19.2102L4.98267 16.0467C5.09438 16.0163 5.21193 16.0001 5.33327 16.0001H14.6666C14.8059 16.0001 14.9403 16.0214 15.0665 16.0611ZM16.7169 5.55054L19.2614 8.09497C20.3028 9.13637 20.3028 10.8248 19.2614 11.8662L16.6913 14.4363C15.0919 13.6023 13.9999 11.9287 13.9999 10.0001C13.9999 8.06115 15.1036 6.38 16.7169 5.55054Z" fill="#2E57DB"/></g><defs><clipPath id="ceclip0_33029_18120"><rect width="24" height="24" fill="white"/></clipPath></defs></symbol><symbol viewBox="0 0 24 24" fill="none" id="mind_map_gray" xmlns="http://www.w3.org/2000/svg"><g clip-path="url(#cfclip0_33029_18130)"><rect opacity="0.36" x="4" y="16" width="12" height="8" rx="1.33333" fill="#919BB6"/><circle opacity="0.36" cx="19" cy="10" r="5" fill="#919BB6"/><rect opacity="0.36" x="-1.08337" y="9.98047" width="15.7193" height="15.7193" rx="2.66667" transform="rotate(-45 -1.08337 9.98047)" fill="#919BB6"/></g><defs><clipPath id="cfclip0_33029_18130"><rect width="24" height="24" fill="white"/></clipPath></defs></symbol><symbol viewBox="0 0 24 24" fill="none" id="money" xmlns="http://www.w3.org/2000/svg"><path d="M18.9564 24C21.1291 24 23.0291 22.5363 23.5835 20.4356V20.4356C23.8535 19.4123 23.7767 18.3282 23.365 17.3532L20.1551 9.7508C19.1953 7.47755 16.9676 6 14.5 6V6C12.0324 6 9.80472 7.47755 8.8449 9.7508L5.635 17.3532C5.22332 18.3282 5.14649 19.4123 5.41654 20.4356V20.4356C5.9709 22.5363 7.8709 24 10.0436 24L18.9564 24Z" fill="#3AE7BC"/><path d="M16 4C17.6569 4 19 2.65685 19 1V1C19 0.447716 18.5523 5.76476e-07 18 5.52335e-07L11 2.46355e-07C10.4477 2.22214e-07 10 0.447715 10 1V1C10 2.65685 11.3431 4 13 4L16 4Z" fill="#3AE7BC"/><circle cx="6.5" cy="6.5" r="6.5" transform="matrix(-1 0 0 1 13 7)" fill="#FF7188"/><path fill-rule="evenodd" clip-rule="evenodd" d="M9.96589 8C9.50334 8.50661 9.12147 9.0956 8.84488 9.75067L5.63498 17.3531C5.29575 18.1565 5.18389 19.0339 5.30611 19.8905C5.69312 19.9623 6.09218 19.9999 6.5 19.9999C10.0899 19.9999 13 17.0897 13 13.4999C13 11.1842 11.7891 9.15134 9.96589 8Z" fill="#2E57DB"/></symbol><symbol viewBox="0 0 24 24" fill="none" id="money_gray" xmlns="http://www.w3.org/2000/svg"><path opacity="0.36" d="M18.9564 24C21.1291 24 23.0291 22.5363 23.5835 20.4356V20.4356C23.8535 19.4123 23.7767 18.3282 23.365 17.3532L20.1551 9.7508C19.1953 7.47755 16.9676 6 14.5 6V6C12.0324 6 9.80472 7.47755 8.8449 9.7508L5.635 17.3532C5.22332 18.3282 5.14649 19.4123 5.41654 20.4356V20.4356C5.9709 22.5363 7.8709 24 10.0436 24L18.9564 24Z" fill="#919BB6"/><path opacity="0.36" d="M16 4C17.6569 4 19 2.65685 19 1V1C19 0.447716 18.5523 5.76476e-07 18 5.52335e-07L11 2.46355e-07C10.4477 2.22214e-07 10 0.447715 10 1V1C10 2.65685 11.3431 4 13 4L16 4Z" fill="#919BB6"/><circle opacity="0.36" cx="6.5" cy="6.5" r="6.5" transform="matrix(-1 0 0 1 13 7)" fill="#919BB6"/></symbol><symbol viewBox="0 0 24 24" fill="none" id="notes" xmlns="http://www.w3.org/2000/svg"><g clip-path="url(#ciclip0_33029_18028)"><path d="M0 22V2C0 0.895431 0.895431 0 2 0H16.6667C17.7712 0 18.6667 0.895431 18.6667 2V18.5049C18.6667 19.0353 18.456 19.544 18.0809 19.9191L14.5858 23.4142C14.2107 23.7893 13.702 24 13.1716 24H2C0.895431 24 0 23.1046 0 22Z" fill="#3AE7BC"/><path fill-rule="evenodd" clip-rule="evenodd" d="M23.0608 3.63882C21.8243 2.4023 19.8195 2.4023 18.583 3.63881L9.92019 12.3016C9.493 12.7288 9.18993 13.2641 9.04341 13.8502L8.04421 17.847C7.98742 18.0741 8.05398 18.3145 8.21957 18.4801C8.38516 18.6456 8.62548 18.7122 8.85266 18.6554L12.8494 17.6562C13.4356 17.5097 13.9708 17.2066 14.398 16.7794L23.0608 8.11665C24.2973 6.88013 24.2973 4.87533 23.0608 3.63882Z" fill="#FF7188"/><path fill-rule="evenodd" clip-rule="evenodd" d="M18.6667 3.55811V12.5108L14.398 16.7795C13.9708 17.2067 13.4356 17.5097 12.8494 17.6563L8.85266 18.6555C8.62548 18.7123 8.38516 18.6457 8.21957 18.4801C8.05398 18.3145 7.98742 18.0742 8.04421 17.847L9.04341 13.8502C9.18993 13.2641 9.493 12.7288 9.92019 12.3017L18.583 3.63886C18.6105 3.61133 18.6384 3.58441 18.6667 3.55811Z" fill="#2E57DB"/></g><defs><clipPath id="ciclip0_33029_18028"><rect width="24" height="24" fill="white"/></clipPath></defs></symbol><symbol viewBox="0 0 24 24" fill="none" id="notes_gray" xmlns="http://www.w3.org/2000/svg"><g clip-path="url(#cjclip0_33029_18035)"><path opacity="0.36" d="M0 22V2C0 0.895431 0.895431 0 2 0H16.6667C17.7712 0 18.6667 0.895431 18.6667 2V18.5049C18.6667 19.0353 18.456 19.544 18.0809 19.9191L14.5858 23.4142C14.2107 23.7893 13.702 24 13.1716 24H2C0.895431 24 0 23.1046 0 22Z" fill="#919BB6"/><path opacity="0.36" fill-rule="evenodd" clip-rule="evenodd" d="M23.0608 3.63882C21.8243 2.4023 19.8195 2.4023 18.583 3.63881L9.92019 12.3016C9.493 12.7288 9.18993 13.2641 9.04341 13.8502L8.04421 17.847C7.98742 18.0741 8.05398 18.3145 8.21957 18.4801C8.38516 18.6456 8.62548 18.7122 8.85266 18.6554L12.8494 17.6562C13.4356 17.5097 13.9708 17.2066 14.398 16.7794L23.0608 8.11665C24.2973 6.88013 24.2973 4.87533 23.0608 3.63882Z" fill="#919BB6"/></g><defs><clipPath id="cjclip0_33029_18035"><rect width="24" height="24" fill="white"/></clipPath></defs></symbol><symbol viewBox="0 0 24 24" fill="none" id="onboarding" xmlns="http://www.w3.org/2000/svg"><path d="M4 6V17.0115C4 18.4299 4.75113 19.7422 5.97413 20.4606L8.45472 21.9176C10.6434 23.2032 13.3566 23.2032 15.5453 21.9176L18.0259 20.4606C19.2489 19.7422 20 18.4299 20 17.0115V6L12 10.699L4 6Z" fill="#3AE7BC"/><path d="M12.9994 1.5766C12.3809 1.21976 11.6191 1.21976 11.0006 1.5766L0.501389 7.63381C-0.165648 8.01864 -0.165648 8.98136 0.501388 9.36619L11.0006 15.4234C11.6191 15.7802 12.3809 15.7802 12.9994 15.4234L23.4986 9.36619C24.1656 8.98136 24.1656 8.01864 23.4986 7.63381L12.9994 1.5766Z" fill="#FF7188"/><path fill-rule="evenodd" clip-rule="evenodd" d="M20 11.3846V6L12 10.699L4 6V11.3846L11.0006 15.4234C11.6191 15.7802 12.3809 15.7802 12.9994 15.4234L20 11.3846Z" fill="#2E57DB"/></symbol><symbol viewBox="0 0 24 24" fill="none" id="partners" xmlns="http://www.w3.org/2000/svg"><path fill-rule="evenodd" clip-rule="evenodd" d="M15.5 11C12.4624 11 10 8.53757 10 5.5C10 2.46243 12.4624 0 15.5 0C18.5376 0 21 2.46243 21 5.5C21 8.53757 18.5376 11 15.5 11ZM16.1454 13C20.4834 13 24 16.5166 24 20.8546V22C24 23.1046 23.1046 24 22 24H9C7.89543 24 7 23.1046 7 22V20.8546C7 16.5166 10.5166 13 14.8546 13H16.1454Z" fill="#FF7188"/><path fill-rule="evenodd" clip-rule="evenodd" d="M18.7688 23.8636C18.8393 23.7768 18.87 23.6939 18.9038 23.5872C20.0521 19.9609 20.7911 17.8892 21.5059 15.8854C22.1573 14.0595 22.7885 12.29 23.691 9.4518C23.7256 9.34311 23.7619 9.23373 23.7984 9.12392C23.8642 8.92572 23.9305 8.72613 23.9877 8.52672C23.9962 8.4903 24.0004 8.45256 24 8.41451C24.0012 8.30697 23.9642 8.20048 23.8989 8.12349C23.8336 8.04651 23.742 8.00132 23.6485 8H13.6003C11.7931 8.06402 10.0785 8.93493 8.81978 10.4282C8.40808 10.9167 8.05573 11.4592 7.76795 12.0409H5.97251C4.3885 12.0409 2.86937 12.6708 1.74931 13.7922C0.629246 14.9136 0 16.4345 0 18.0204C0 19.6063 0.629246 21.1272 1.74931 22.2486C2.86937 23.37 4.3885 24 5.97251 24H12.6354C12.7165 23.9979 12.7946 23.9727 12.861 23.9283C13.1051 23.9671 13.3518 23.9912 13.6003 24H18.5143C18.6061 23.9948 18.6983 23.9505 18.7688 23.8636Z" fill="#3AE7BC"/><path fill-rule="evenodd" clip-rule="evenodd" d="M11.009 8.67578C12.0052 10.0821 13.6454 11 15.5 11C17.6373 11 19.4899 9.78084 20.4003 8H13.6003C12.6984 8.03195 11.8196 8.26485 11.009 8.67578ZM15.6366 24H18.5143C18.6061 23.9948 18.6983 23.9505 18.7688 23.8636C18.8393 23.7768 18.87 23.6939 18.9038 23.5872C20.0521 19.9609 20.7911 17.8892 21.5059 15.8854C21.5742 15.694 21.6423 15.5031 21.7105 15.3116C20.2882 13.8837 18.32 13 16.1454 13H14.8546C10.5166 13 7 16.5166 7 20.8546V24H15.6366Z" fill="#2E57DB"/></symbol><symbol viewBox="0 0 24 24" fill="none" id="portal_client" xmlns="http://www.w3.org/2000/svg"><path d="M24 7.11111C24 5.94518 23.0548 5 21.8889 5L10.1111 5C8.94518 5 8 5.94518 8 7.11111L8 16C8 20.4183 11.5817 24 16 24C20.4183 24 24 20.4183 24 16L24 7.11111Z" fill="#3AE7BC"/><path fill-rule="evenodd" clip-rule="evenodd" d="M8 10C5.23858 10 3 7.76142 3 5C3 2.23858 5.23858 0 8 0C10.7614 0 13 2.23858 13 5C13 7.76142 10.7614 10 8 10ZM9 12C12.866 12 16 15.134 16 19V22C16 23.1046 15.1046 24 14 24H2.5C1.11929 24 0 22.8807 0 21.5V19C0 15.134 3.13401 12 7 12H9Z" fill="#FF7188"/><path fill-rule="evenodd" clip-rule="evenodd" d="M14.6605 23.8884C10.8799 23.2511 8 19.9619 8 16V12H9C12.866 12 16 15.134 16 19V22C16 22.8731 15.4405 23.6155 14.6605 23.8884ZM13 5H10.1111C8.94518 5 8 5.94518 8 7.11111V10C10.7614 10 13 7.76142 13 5Z" fill="#2E57DB"/></symbol><symbol viewBox="0 0 24 24" fill="none" id="project" xmlns="http://www.w3.org/2000/svg"><g clip-path="url(#cnclip0_33026_1585)"><path d="M17 12.5C17 17.1944 13.1944 21 8.5 21C3.80558 21 0 17.1944 0 12.5C0 7.80558 3.80558 4 8.5 4C13.1944 4 17 7.80558 17 12.5ZM4.42529 12.5C4.42529 14.7504 6.2496 16.5747 8.5 16.5747C10.7504 16.5747 12.5747 14.7504 12.5747 12.5C12.5747 10.2496 10.7504 8.42529 8.5 8.42529C6.2496 8.42529 4.42529 10.2496 4.42529 12.5Z" fill="#FF7188"/><path d="M8.00016 4.99994C8.00019 2.23854 10.2388 0 13.0002 0H23.518C23.9951 0 24.1757 0.623498 23.7726 0.878533V0.878533C22.669 1.57675 22 2.79166 22 4.0976V19.0024C22 21.7638 19.7614 24.0024 17 24.0024H8.54745L6.70574 24.0009C6.26048 24.0006 6.03773 23.4622 6.35258 23.1474L6.82842 22.6716C7.57855 21.9214 7.99998 20.904 7.99999 19.8432L8.00016 4.99994Z" fill="#3AE7BC"/><path fill-rule="evenodd" clip-rule="evenodd" d="M8.09825 4.00932C8.03388 4.32953 8.00011 4.6608 8.00011 4.99996L8.00007 8.43818C8.1639 8.41823 8.33071 8.40796 8.49992 8.40796C10.7599 8.40796 12.592 10.24 12.592 12.5C12.592 14.76 10.7599 16.592 8.49992 16.592C8.33068 16.592 8.16383 16.5818 7.99998 16.5618L7.99994 19.8432C7.99994 20.2297 7.944 20.6104 7.83662 20.9745C8.0555 20.9914 8.27671 21 8.49992 21C13.1943 21 16.9999 17.1944 16.9999 12.5C16.9999 7.80558 13.1943 4 8.49992 4C8.36528 4 8.23136 4.00313 8.09825 4.00932Z" fill="#2E57DB"/></g><defs><clipPath id="cnclip0_33026_1585"><rect width="24" height="24" fill="white"/></clipPath></defs></symbol><symbol viewBox="0 0 24 24" fill="none" id="project_gray" xmlns="http://www.w3.org/2000/svg"><g clip-path="url(#coclip0_33026_17100)"><path opacity="0.36" d="M17 12.5C17 17.1944 13.1944 21 8.5 21C3.80558 21 0 17.1944 0 12.5C0 7.80558 3.80558 4 8.5 4C13.1944 4 17 7.80558 17 12.5ZM4.42529 12.5C4.42529 14.7504 6.2496 16.5747 8.5 16.5747C10.7504 16.5747 12.5747 14.7504 12.5747 12.5C12.5747 10.2496 10.7504 8.42529 8.5 8.42529C6.2496 8.42529 4.42529 10.2496 4.42529 12.5Z" fill="#919BB6"/><path opacity="0.36" d="M8.00016 4.99994C8.00019 2.23854 10.2388 0 13.0002 0H23.518C23.9951 0 24.1757 0.623498 23.7726 0.878533V0.878533C22.669 1.57675 22 2.79166 22 4.0976V19.0024C22 21.7638 19.7614 24.0024 17 24.0024H8.54745L6.70574 24.0009C6.26048 24.0006 6.03773 23.4622 6.35258 23.1474L6.82842 22.6716C7.57855 21.9214 7.99998 20.904 7.99999 19.8432L8.00016 4.99994Z" fill="#919BB6"/></g><defs><clipPath id="coclip0_33026_17100"><rect width="24" height="24" fill="white"/></clipPath></defs></symbol><symbol viewBox="0 0 24 24" fill="none" id="reports" xmlns="http://www.w3.org/2000/svg"><path fill-rule="evenodd" clip-rule="evenodd" d="M3.5 5C2.11929 5 1 6.11929 1 7.5V21.5C1 22.8807 2.11929 24 3.5 24C4.88071 24 6 22.8807 6 21.5V7.5C6 6.11929 4.88071 5 3.5 5ZM10.5 14C9.11929 14 8 15.1193 8 16.5V21.5C8 22.8807 9.11929 24 10.5 24C11.8807 24 13 22.8807 13 21.5V16.5C13 15.1193 11.8807 14 10.5 14Z" fill="#FF7188"/><path fill-rule="evenodd" clip-rule="evenodd" d="M14 20C19.5228 20 24 15.5228 24 10C24 4.47715 19.5228 0 14 0C8.47715 0 4 4.47715 4 10C4 15.5228 8.47715 20 14 20ZM14 14C16.2091 14 18 12.2091 18 10C18 7.79086 16.2091 6 14 6C11.7909 6 10 7.79086 10 10C10 12.2091 11.7909 14 14 14Z" fill="#3AE7BC"/><path fill-rule="evenodd" clip-rule="evenodd" d="M6 16.0063C5.66343 15.5583 5.36339 15.0805 5.10419 14.5769C4.07779 12.5829 3.75143 10.3018 4.17755 8.10006C4.35099 7.2039 4.64499 6.34205 5.04704 5.53613C5.62743 5.99394 6 6.70351 6 7.5001V16.0063ZM13 19.9505C11.9132 19.8418 10.8441 19.555 9.83701 19.0945C9.18347 18.7957 8.5682 18.4293 8 18.0036V15.5001C8 14.1194 9.11929 13.0001 10.5 13.0001C11.8807 13.0001 13 14.1194 13 15.5001V19.9505Z" fill="#2E57DB"/></symbol><symbol viewBox="0 0 24 24" fill="none" id="reports_gray" xmlns="http://www.w3.org/2000/svg"><path opacity="0.36" fill-rule="evenodd" clip-rule="evenodd" d="M3.5 5C2.11929 5 1 6.11929 1 7.5V21.5C1 22.8807 2.11929 24 3.5 24C4.88071 24 6 22.8807 6 21.5V7.5C6 6.11929 4.88071 5 3.5 5ZM10.5 14C9.11929 14 8 15.1193 8 16.5V21.5C8 22.8807 9.11929 24 10.5 24C11.8807 24 13 22.8807 13 21.5V16.5C13 15.1193 11.8807 14 10.5 14Z" fill="#919BB6"/><path opacity="0.36" fill-rule="evenodd" clip-rule="evenodd" d="M14 20C19.5228 20 24 15.5228 24 10C24 4.47715 19.5228 0 14 0C8.47715 0 4 4.47715 4 10C4 15.5228 8.47715 20 14 20ZM14 14C16.2091 14 18 12.2091 18 10C18 7.79086 16.2091 6 14 6C11.7909 6 10 7.79086 10 10C10 12.2091 11.7909 14 14 14Z" fill="#919BB6"/></symbol><symbol viewBox="0 0 24 24" fill="none" id="rpa" xmlns="http://www.w3.org/2000/svg"><g clip-path="url(#crclip0_33029_18354)"><path d="M8 16C6.94943 16 5.90914 15.7931 4.93853 15.391C3.96793 14.989 3.08601 14.3997 2.34315 13.6569C1.60028 12.914 1.011 12.0321 0.608964 11.0615C0.206926 10.0909 0 9.05057 0 8C0 6.94943 0.206926 5.90914 0.608964 4.93853C1.011 3.96793 1.60028 3.08601 2.34315 2.34315C3.08601 1.60028 3.96793 1.011 4.93853 0.608964C5.90914 0.206926 6.94943 -4.59221e-08 8 0L8 8L8 16Z" fill="#FF7188"/><path d="M16 24C17.0506 24 18.0909 23.7931 19.0615 23.391C20.0321 22.989 20.914 22.3997 21.6569 21.6569C22.3997 20.914 22.989 20.0321 23.391 19.0615C23.7931 18.0909 24 17.0506 24 16C24 14.9494 23.7931 13.9091 23.391 12.9385C22.989 11.9679 22.3997 11.086 21.6569 10.3431C20.914 9.60028 20.0321 9.011 19.0615 8.60896C18.0909 8.20693 17.0506 8 16 8L16 16L16 24Z" fill="#FF7188"/><rect x="4" y="4" width="16" height="16" rx="4" fill="#3AE7BC"/><path fill-rule="evenodd" clip-rule="evenodd" d="M8 16C6.94943 16 5.90914 15.7931 4.93853 15.391C4.61523 15.2571 4.30176 15.1024 4 14.9282V8C4 5.79086 5.79086 4 8 4V8V16ZM20 9.0718C19.6982 8.89757 19.3848 8.74288 19.0615 8.60896C18.0909 8.20693 17.0506 8 16 8V16V20C18.2091 20 20 18.2091 20 16V9.0718Z" fill="#2E57DB"/></g><defs><clipPath id="crclip0_33029_18354"><rect width="24" height="24" fill="white"/></clipPath></defs></symbol><symbol viewBox="0 0 24 24" fill="none" id="rpagray" xmlns="http://www.w3.org/2000/svg"><g clip-path="url(#csclip0_33029_18544)"><path opacity="0.36" d="M8 16C6.94943 16 5.90914 15.7931 4.93853 15.391C3.96793 14.989 3.08601 14.3997 2.34315 13.6569C1.60028 12.914 1.011 12.0321 0.608964 11.0615C0.206926 10.0909 0 9.05057 0 8C0 6.94943 0.206926 5.90914 0.608964 4.93853C1.011 3.96793 1.60028 3.08601 2.34315 2.34315C3.08601 1.60028 3.96793 1.011 4.93853 0.608964C5.90914 0.206926 6.94943 -4.59221e-08 8 0L8 8L8 16Z" fill="#919BB6"/><path opacity="0.36" d="M16 24C17.0506 24 18.0909 23.7931 19.0615 23.391C20.0321 22.989 20.914 22.3997 21.6569 21.6569C22.3997 20.914 22.989 20.0321 23.391 19.0615C23.7931 18.0909 24 17.0506 24 16C24 14.9494 23.7931 13.9091 23.391 12.9385C22.989 11.9679 22.3997 11.086 21.6569 10.3431C20.914 9.60028 20.0321 9.011 19.0615 8.60896C18.0909 8.20693 17.0506 8 16 8L16 16L16 24Z" fill="#919BB6"/><rect opacity="0.36" x="4" y="4" width="16" height="16" rx="4" fill="#919BB6"/></g><defs><clipPath id="csclip0_33029_18544"><rect width="24" height="24" fill="white"/></clipPath></defs></symbol><symbol viewBox="0 0 24 24" fill="none" id="salary" xmlns="http://www.w3.org/2000/svg"><path d="M15 15.5C15 13.567 16.567 12 18.5 12H22C23.1046 12 24 12.8954 24 14V17C24 18.1046 23.1046 19 22 19H18.5C16.567 19 15 17.433 15 15.5V15.5Z" fill="#FF7188"/><path fill-rule="evenodd" clip-rule="evenodd" d="M0 6.39433C0 4.46448 1.37791 2.80979 3.27588 2.46042L16.4253 0.0400006C17.2446 -0.110807 18 0.518251 18 1.3513V4.00012C18 4.55241 17.5523 5.00012 17 5.00012H5.66667C4.42411 5.00012 3.38004 5.84997 3.08401 7.00012H18.3333C19.8061 7.00012 21 8.19403 21 9.66679V21.3335C21 22.8062 19.8061 24.0001 18.3333 24.0001H2.66667C1.19391 24.0001 0 22.8062 0 21.3335V12.0001V9.66679V6.39433Z" fill="#3AE7BC"/><path fill-rule="evenodd" clip-rule="evenodd" d="M21 12V19H17.5C15.567 19 14 17.433 14 15.5C14 13.567 15.567 12 17.5 12H21Z" fill="#2E57DB"/></symbol><symbol viewBox="0 0 24 24" fill="none" id="salary_gray" xmlns="http://www.w3.org/2000/svg"><path opacity="0.36" d="M15 15.5C15 13.567 16.567 12 18.5 12H22C23.1046 12 24 12.8954 24 14V17C24 18.1046 23.1046 19 22 19H18.5C16.567 19 15 17.433 15 15.5V15.5Z" fill="#919BB6"/><path opacity="0.36" fill-rule="evenodd" clip-rule="evenodd" d="M0 6.39433C0 4.46448 1.37791 2.80979 3.27588 2.46042L16.4253 0.0400006C17.2446 -0.110807 18 0.518251 18 1.3513V4.00012C18 4.55241 17.5523 5.00012 17 5.00012H5.66667C4.42411 5.00012 3.38004 5.84997 3.08401 7.00012H18.3333C19.8061 7.00012 21 8.19403 21 9.66679V21.3335C21 22.8062 19.8061 24.0001 18.3333 24.0001H2.66667C1.19391 24.0001 0 22.8062 0 21.3335V12.0001V9.66679V6.39433Z" fill="#919BB6"/></symbol><symbol viewBox="0 0 24 24" fill="none" id="service" xmlns="http://www.w3.org/2000/svg"><path fill-rule="evenodd" clip-rule="evenodd" d="M12.9999 22C19.075 22 23.9999 17.0751 23.9999 11C23.9999 4.92486 19.075 0 12.9999 0C6.92484 0 1.99994 4.92486 1.99994 11C1.99994 17.0751 6.92484 22 12.9999 22ZM12.9999 16C15.7614 16 17.9999 13.7614 17.9999 11C17.9999 8.23858 15.7614 6 12.9999 6C10.2385 6 7.99994 8.23858 7.99994 11C7.99994 13.7614 10.2385 16 12.9999 16Z" fill="#3AE7BC"/><path d="M0 13C0 11.8954 0.895431 11 2 11H12C13.1046 11 14 11.8954 14 13V20C14 21.1046 13.1046 22 12 22H7.92177C7.32111 22 6.73429 22.1803 6.23726 22.5176L4.47041 23.7165C4.19817 23.9012 3.87675 24 3.54774 24V24C3.24523 24 3 23.7548 3 23.4523V23.3333C3 22.597 2.40305 22 1.66667 22V22C0.746192 22 0 21.2538 0 20.3333V13Z" fill="#FF7188"/><path fill-rule="evenodd" clip-rule="evenodd" d="M12.298 21.978C13.2612 21.8341 14 21.0033 14 20V15.9C13.6769 15.9656 13.3425 16 13.0001 16C10.2386 16 8.00006 13.7614 8.00006 11H2.00006C2.00006 16.8393 6.55002 21.6159 12.298 21.978Z" fill="#2E57DB"/></symbol><symbol viewBox="0 0 24 24" fill="none" id="service_gray" xmlns="http://www.w3.org/2000/svg"><path opacity="0.36" fill-rule="evenodd" clip-rule="evenodd" d="M12.9999 22C19.075 22 23.9999 17.0751 23.9999 11C23.9999 4.92486 19.075 0 12.9999 0C6.92484 0 1.99994 4.92486 1.99994 11C1.99994 17.0751 6.92484 22 12.9999 22ZM12.9999 16C15.7614 16 17.9999 13.7614 17.9999 11C17.9999 8.23858 15.7614 6 12.9999 6C10.2385 6 7.99994 8.23858 7.99994 11C7.99994 13.7614 10.2385 16 12.9999 16Z" fill="#919BB6"/><path opacity="0.36" d="M0 13C0 11.8954 0.895431 11 2 11H12C13.1046 11 14 11.8954 14 13V20C14 21.1046 13.1046 22 12 22H7.92177C7.32111 22 6.73429 22.1803 6.23726 22.5176L4.47041 23.7165C4.19817 23.9012 3.87675 24 3.54774 24V24C3.24523 24 3 23.7548 3 23.4523V23.3333C3 22.597 2.40305 22 1.66667 22V22C0.746192 22 0 21.2538 0 20.3333V13Z" fill="#919BB6"/></symbol><symbol viewBox="0 0 24 24" fill="none" id="settings" xmlns="http://www.w3.org/2000/svg"><circle cx="18" cy="6" r="6" fill="#FF7188"/><path fill-rule="evenodd" clip-rule="evenodd" d="M8.3835 3C8.04119 3 7.74231 3.23178 7.6571 3.56331L7.05177 5.91869C6.96754 6.24642 6.73937 6.51674 6.44467 6.683C6.15786 6.84482 5.82125 6.90041 5.504 6.81213L3.07091 6.13508C2.73664 6.04206 2.37798 6.18521 2.20187 6.48194L0.103098 10.0181C-0.073015 10.3148 -0.0211317 10.6885 0.228812 10.9236L2.04729 12.634C2.2844 12.857 2.40483 13.1745 2.40483 13.5C2.40483 13.8255 2.2844 14.1429 2.04728 14.366L0.228801 16.0764C-0.0211419 16.3115 -0.0730241 16.6852 0.103089 16.9819L2.20186 20.518C2.37797 20.8148 2.73663 20.9579 3.0709 20.8649L5.50404 20.1878C5.82128 20.0996 6.15788 20.1552 6.44468 20.317C6.73938 20.4832 6.96754 20.7535 7.05177 21.0813L7.65712 23.4367C7.74232 23.7682 8.0412 24 8.38351 24H12.6173C12.9596 24 13.2585 23.7682 13.3437 23.4367L13.9491 21.0812C14.0333 20.7535 14.2615 20.4832 14.5562 20.3169C14.843 20.1551 15.1796 20.0995 15.4969 20.1878L17.9299 20.8648C18.2641 20.9578 18.6228 20.8147 18.7989 20.5179L20.8977 16.9818C21.0738 16.6851 21.0219 16.3114 20.772 16.0763L18.9534 14.3658C18.7163 14.1428 18.5959 13.8254 18.5959 13.5C18.5959 13.1746 18.7163 12.8572 18.9534 12.6342L20.7721 10.9236C21.0221 10.6885 21.0739 10.3148 20.8978 10.0181L18.7991 6.48193C18.6229 6.1852 18.2643 6.04205 17.93 6.13506L15.4968 6.81215C15.1795 6.90043 14.8429 6.84484 14.5561 6.68302C14.2614 6.51675 14.0332 6.24643 13.949 5.91871L13.3437 3.56332C13.2585 3.23178 12.9596 3 12.6173 3H8.3835ZM10.5 16C11.8807 16 13 14.8807 13 13.5C13 12.1193 11.8807 11 10.5 11C9.11929 11 8 12.1193 8 13.5C8 14.8807 9.11929 16 10.5 16Z" fill="#3AE7BC"/><path fill-rule="evenodd" clip-rule="evenodd" d="M12.791 3.02026C13.0571 3.08355 13.2733 3.28936 13.3437 3.56325L13.949 5.91865C14.0333 6.24637 14.2614 6.51669 14.5561 6.68296C14.8429 6.84478 15.1795 6.90037 15.4968 6.81209L17.93 6.135C18.2643 6.04199 18.6229 6.18514 18.7991 6.48187L20.8978 10.018C21.0739 10.3147 21.0221 10.6884 20.7721 10.9235L19.9851 11.6638C19.3637 11.8815 18.6957 12 18 12C14.6863 12 12 9.31366 12 5.99995C12 4.91547 12.2877 3.89818 12.791 3.02026Z" fill="#2E57DB"/></symbol><symbol viewBox="0 0 24 24" fill="none" id="settings_gray" xmlns="http://www.w3.org/2000/svg"><circle opacity="0.36" cx="18" cy="6" r="6" fill="#919BB6"/><path opacity="0.36" fill-rule="evenodd" clip-rule="evenodd" d="M8.3835 3C8.04119 3 7.74231 3.23178 7.6571 3.56331L7.05177 5.91869C6.96754 6.24642 6.73937 6.51674 6.44467 6.683C6.15786 6.84482 5.82125 6.90041 5.504 6.81213L3.07091 6.13508C2.73664 6.04206 2.37798 6.18521 2.20187 6.48194L0.103098 10.0181C-0.073015 10.3148 -0.0211317 10.6885 0.228812 10.9236L2.04729 12.634C2.2844 12.857 2.40483 13.1745 2.40483 13.5C2.40483 13.8255 2.2844 14.1429 2.04728 14.366L0.228801 16.0764C-0.0211419 16.3115 -0.0730241 16.6852 0.103089 16.9819L2.20186 20.518C2.37797 20.8148 2.73663 20.9579 3.0709 20.8649L5.50404 20.1878C5.82128 20.0996 6.15788 20.1552 6.44468 20.317C6.73938 20.4832 6.96754 20.7535 7.05177 21.0813L7.65712 23.4367C7.74232 23.7682 8.0412 24 8.38351 24H12.6173C12.9596 24 13.2585 23.7682 13.3437 23.4367L13.9491 21.0812C14.0333 20.7535 14.2615 20.4832 14.5562 20.3169C14.843 20.1551 15.1796 20.0995 15.4969 20.1878L17.9299 20.8648C18.2641 20.9578 18.6228 20.8147 18.7989 20.5179L20.8977 16.9818C21.0738 16.6851 21.0219 16.3114 20.772 16.0763L18.9534 14.3658C18.7163 14.1428 18.5959 13.8254 18.5959 13.5C18.5959 13.1746 18.7163 12.8572 18.9534 12.6342L20.7721 10.9236C21.0221 10.6885 21.0739 10.3148 20.8978 10.0181L18.7991 6.48193C18.6229 6.1852 18.2643 6.04205 17.93 6.13506L15.4968 6.81215C15.1795 6.90043 14.8429 6.84484 14.5561 6.68302C14.2614 6.51675 14.0332 6.24643 13.949 5.91871L13.3437 3.56332C13.2585 3.23178 12.9596 3 12.6173 3H8.3835ZM10.5 16C11.8807 16 13 14.8807 13 13.5C13 12.1193 11.8807 11 10.5 11C9.11929 11 8 12.1193 8 13.5C8 14.8807 9.11929 16 10.5 16Z" fill="#919BB6"/></symbol><symbol viewBox="0 0 24 24" fill="none" id="tasks" xmlns="http://www.w3.org/2000/svg"><g clip-path="url(#czclip0_33026_1833)"><path fill-rule="evenodd" clip-rule="evenodd" d="M19.1632 5.81359C20.2789 6.89838 20.2789 8.65717 19.1632 9.74196L9.44888 19.1864C8.33309 20.2712 6.52405 20.2712 5.40827 19.1864L0.836838 14.742C-0.278946 13.6572 -0.278946 11.8984 0.836838 10.8136C1.95262 9.7288 3.76166 9.7288 4.87745 10.8136L7.42857 13.2939L15.1226 5.81359C16.2383 4.7288 18.0474 4.7288 19.1632 5.81359Z" fill="#FF7188"/><path fill-rule="evenodd" clip-rule="evenodd" d="M8 0C6.89543 0 6 0.895431 6 2V9C6 10.1046 6.89543 11 8 11H22C23.1046 11 24 10.1046 24 9V2C24 0.895431 23.1046 0 22 0H8ZM8 13C6.89543 13 6 13.8954 6 15V22C6 23.1046 6.89543 24 8 24H22C23.1046 24 24 23.1046 24 22V15C24 13.8954 23.1046 13 22 13H8Z" fill="#3AE7BC"/><path fill-rule="evenodd" clip-rule="evenodd" d="M17.8692 11L19.1632 9.74196C20.2789 8.65717 20.2789 6.89838 19.1632 5.81359C18.0474 4.7288 16.2383 4.7288 15.1226 5.81359L9.78796 11H17.8692ZM7.26833 13.1381L7.42857 13.2939L7.70924 13.021C7.80416 13.0072 7.90124 13 8 13H15.812L9.44888 19.1864C8.51407 20.0952 7.09266 20.2427 6 19.6286V15C6 14.1537 6.52568 13.4301 7.26833 13.1381Z" fill="#2E57DB"/></g><defs><clipPath id="czclip0_33026_1833"><rect width="24" height="24" fill="white"/></clipPath></defs></symbol><symbol viewBox="0 0 24 24" fill="none" id="techsupport" xmlns="http://www.w3.org/2000/svg"><g clip-path="url(#daclip0_33028_17922)"><path d="M24 6.5C24 10.0899 21.0899 13 17.5 13C13.9101 13 11 10.0899 11 6.5C11 2.91015 13.9101 0 17.5 0C21.0899 0 24 2.91015 24 6.5Z" fill="#FF7188"/><path d="M7 5C3.13401 5 0 8.13401 0 12C0 13.8188 0.693695 15.4757 1.83095 16.7203C1.86401 16.7623 1.89982 16.8025 1.93831 16.8407L8.72692 23.5854C9.56812 24.4211 11 23.8253 11 22.6395V19H17C20.866 19 24 15.866 24 12C24 8.13401 20.866 5 17 5H7Z" fill="#3AE7BC"/><path d="M11.1739 5H17C19.8691 5 22.335 6.7261 23.416 9.19649C22.4245 11.3683 20.2722 12.8989 17.7524 12.9951C17.7259 12.9983 17.6988 12.9999 17.671 12.9999H11.65C11.291 12.9999 11 12.7089 11 12.3499V7.25437C11 7.19041 11.0088 7.12967 11.0249 7.07286C11.0084 6.88408 11 6.69298 11 6.49992C11 5.98368 11.0602 5.48149 11.1739 5Z" fill="#2E57DB"/></g><defs><clipPath id="daclip0_33028_17922"><rect width="24" height="24" fill="white"/></clipPath></defs></symbol><symbol viewBox="0 0 24 24" fill="none" id="techsupport_gray" xmlns="http://www.w3.org/2000/svg"><g clip-path="url(#dbclip0_33029_17936)"><path opacity="0.36" d="M24 6.5C24 10.0899 21.0899 13 17.5 13C13.9101 13 11 10.0899 11 6.5C11 2.91015 13.9101 0 17.5 0C21.0899 0 24 2.91015 24 6.5Z" fill="#919BB6"/><path opacity="0.36" d="M7 5C3.13401 5 0 8.13401 0 12C0 13.8188 0.693695 15.4757 1.83095 16.7203C1.86401 16.7623 1.89982 16.8025 1.93831 16.8407L8.72692 23.5854C9.56812 24.4211 11 23.8253 11 22.6395V19H17C20.866 19 24 15.866 24 12C24 8.13401 20.866 5 17 5H7Z" fill="#919BB6"/></g><defs><clipPath id="dbclip0_33029_17936"><rect width="24" height="24" fill="white"/></clipPath></defs></symbol><symbol viewBox="0 0 24 24" fill="none" id="timetracker" xmlns="http://www.w3.org/2000/svg"><path fill-rule="evenodd" clip-rule="evenodd" d="M12 19C15.3137 19 18 16.3137 18 13C18 9.68629 15.3137 7 12 7C8.68629 7 6 9.68629 6 13C6 16.3137 8.68629 19 12 19ZM12 24C18.0751 24 23 19.0751 23 13C23 6.92487 18.0751 2 12 2C5.92487 2 1 6.92487 1 13C1 19.0751 5.92487 24 12 24Z" fill="#3AE7BC"/><rect x="8" width="8" height="4" rx="2" fill="#FF7188"/><path fill-rule="evenodd" clip-rule="evenodd" d="M15.8735 2.70139C15.5894 3.45997 14.8578 3.99996 14 3.99996H10C9.14224 3.99996 8.4106 3.45998 8.12646 2.7014C9.33128 2.24802 10.6367 2 12 2C13.3633 2 14.6687 2.24802 15.8735 2.70139Z" fill="#2E57DB"/><path fill-rule="evenodd" clip-rule="evenodd" d="M21.2678 3.73223C22.2441 4.70854 22.2441 6.29146 21.2678 7.26777L13.7678 14.7678C12.7915 15.7441 11.2085 15.7441 10.2322 14.7678C9.25592 13.7915 9.25592 12.2085 10.2322 11.2322L17.7322 3.73223C18.7085 2.75592 20.2915 2.75592 21.2678 3.73223Z" fill="#FF7188"/><path fill-rule="evenodd" clip-rule="evenodd" d="M14.0903 7.37414L17.8079 3.65649C19.2397 4.54838 20.4516 5.76022 21.3435 7.19201L17.6258 10.9096C17.0191 9.27746 15.7225 7.98081 14.0903 7.37414Z" fill="#2E57DB"/></symbol><symbol viewBox="0 0 24 24" fill="none" id="timetracker_gray" xmlns="http://www.w3.org/2000/svg"><path opacity="0.36" fill-rule="evenodd" clip-rule="evenodd" d="M12 19C15.3137 19 18 16.3137 18 13C18 9.68629 15.3137 7 12 7C8.68629 7 6 9.68629 6 13C6 16.3137 8.68629 19 12 19ZM12 24C18.0751 24 23 19.0751 23 13C23 6.92487 18.0751 2 12 2C5.92487 2 1 6.92487 1 13C1 19.0751 5.92487 24 12 24Z" fill="#919BB6"/><rect opacity="0.36" x="8" width="8" height="4" rx="2" fill="#919BB6"/><path opacity="0.36" fill-rule="evenodd" clip-rule="evenodd" d="M21.2678 3.73223C22.2441 4.70854 22.2441 6.29146 21.2678 7.26777L13.7678 14.7678C12.7915 15.7441 11.2085 15.7441 10.2322 14.7678C9.25592 13.7915 9.25592 12.2085 10.2322 11.2322L17.7322 3.73223C18.7085 2.75592 20.2915 2.75592 21.2678 3.73223Z" fill="#919BB6"/></symbol><symbol viewBox="0 0 24 24" fill="none" id="widget" xmlns="http://www.w3.org/2000/svg"><rect x="15" y="-0.350098" width="13.2583" height="13.2583" rx="0.90697" transform="rotate(45 15 -0.350098)" fill="#FF7188"/><path fill-rule="evenodd" clip-rule="evenodd" d="M0 6C0 4.89543 0.89543 4 2 4H7C8.10457 4 9 4.89543 9 6V11C9 12.1046 8.10457 13 7 13H2C0.89543 13 0 12.1046 0 11V6ZM11 17C11 15.8954 11.8954 15 13 15H18C19.1046 15 20 15.8954 20 17V22C20 23.1046 19.1046 24 18 24H13C11.8954 24 11 23.1046 11 22V17ZM2 15C0.89543 15 0 15.8954 0 17V22C0 23.1046 0.89543 24 2 24H7C8.10457 24 9 23.1046 9 22V17C9 15.8954 8.10457 15 7 15H2Z" fill="#3AE7BC"/><path fill-rule="evenodd" clip-rule="evenodd" d="M8.97391 5.67603C8.99109 5.78148 9.00002 5.8897 9.00002 6.00001V11C9.00002 11.3987 8.88333 11.7702 8.68225 12.0822L6.26633 9.66626C5.91213 9.31206 5.91213 8.7378 6.26633 8.38361L8.97391 5.67603ZM11.9179 15.3178C12.2298 15.1167 12.6013 15 13 15H18C18.1252 15 18.2477 15.0115 18.3665 15.0335L15.6413 17.7586C15.2871 18.1128 14.7129 18.1128 14.3587 17.7586L11.9179 15.3178Z" fill="#2E57DB"/></symbol><symbol viewBox="0 0 24 24" fill="none" id="widget_gray" xmlns="http://www.w3.org/2000/svg"><rect opacity="0.36" x="15" y="-0.350098" width="13.2583" height="13.2583" rx="0.90697" transform="rotate(45 15 -0.350098)" fill="#919BB6"/><path opacity="0.36" fill-rule="evenodd" clip-rule="evenodd" d="M0 6C0 4.89543 0.89543 4 2 4H7C8.10457 4 9 4.89543 9 6V11C9 12.1046 8.10457 13 7 13H2C0.89543 13 0 12.1046 0 11V6ZM11 17C11 15.8954 11.8954 15 13 15H18C19.1046 15 20 15.8954 20 17V22C20 23.1046 19.1046 24 18 24H13C11.8954 24 11 23.1046 11 22V17ZM2 15C0.89543 15 0 15.8954 0 17V22C0 23.1046 0.89543 24 2 24H7C8.10457 24 9 23.1046 9 22V17C9 15.8954 8.10457 15 7 15H2Z" fill="#919BB6"/></symbol><symbol viewBox="0 0 24 24" fill="none" id="workspaces" xmlns="http://www.w3.org/2000/svg"><path d="M8 8C8 3.58172 11.5817 0 16 0V0C20.4183 0 24 3.58172 24 8V8C24 12.4183 20.4183 16 16 16H8V8Z" fill="#3AE7BC"/><path d="M16 16C16 20.4183 12.4183 24 8 24V24C3.58172 24 -1.59422e-06 20.4183 -1.20797e-06 16V16C-8.21708e-07 11.5817 3.58172 8 8 8L16 8L16 16Z" fill="#FF7188"/><path fill-rule="evenodd" clip-rule="evenodd" d="M8 8V16H16L16 8H8Z" fill="#2E57DB"/></symbol><symbol viewBox="0 0 24 24" fill="none" id="workspaces_gray" xmlns="http://www.w3.org/2000/svg"><path opacity="0.36" d="M8 8C8 3.58172 11.5817 0 16 0V0C20.4183 0 24 3.58172 24 8V8C24 12.4183 20.4183 16 16 16H8V8Z" fill="#919BB6"/><path opacity="0.36" d="M16 16C16 20.4183 12.4183 24 8 24V24C3.58172 24 -1.59422e-06 20.4183 -1.20797e-06 16V16C-8.21708e-07 11.5817 3.58172 8 8 8L16 8L16 16Z" fill="#919BB6"/></symbol></svg>