<?xml version="1.0" encoding="utf-8"?><svg xmlns="http://www.w3.org/2000/svg" xmlns:xlink="http://www.w3.org/1999/xlink"><symbol fill="none" viewBox="0 0 20 20" id="agile" xmlns="http://www.w3.org/2000/svg"><path fill-rule="evenodd" clip-rule="evenodd" d="M3.752 15H.833a.833.833 0 0 0-.833.833v3.334c0 .46.373.833.833.833h10.834l.075-.003A8.5 8.5 0 1 0 3.752 15Zm7.748 0a3.5 3.5 0 1 0 0-7 3.5 3.5 0 0 0 0 7Z" fill="#3AE7BC"/><path d="M0 4.5a4.5 4.5 0 1 1 9 0 4.5 4.5 0 0 1-9 0Z" fill="#FF7188"/><path fill-rule="evenodd" clip-rule="evenodd" d="M9.005 3.372a4.588 4.588 0 0 1-5.633 5.633 8.52 8.52 0 0 1 5.633-5.633Z" fill="#2E57DB"/></symbol><symbol fill="none" viewBox="0 0 20 20" id="crm" xmlns="http://www.w3.org/2000/svg"><g clip-path="url(#aba)"><path fill-rule="evenodd" clip-rule="evenodd" d="M5.417 11.667a2.917 2.917 0 1 0 0-5.834 2.917 2.917 0 0 0 0 5.834ZM5 13.333a5 5 0 0 0-5 5C0 19.253.746 20 1.667 20h7.206a1.96 1.96 0 0 0 1.96-1.96 4.706 4.706 0 0 0-4.706-4.707H5Z" fill="#FF7188"/><path d="M6.667 18.75v-1.806c0-4.371-2.059-8.488-5.556-11.11A2.778 2.778 0 0 1 0 3.61V1.25C0 .56.56 0 1.25 0h17.5C19.44 0 20 .56 20 1.25v2.361c0 .874-.412 1.698-1.111 2.222a13.889 13.889 0 0 0-5.556 11.111v1.806c0 .69-.56 1.25-1.25 1.25H7.917c-.69 0-1.25-.56-1.25-1.25Z" fill="#3AE7BC"/><path fill-rule="evenodd" clip-rule="evenodd" d="M6.667 16.944v1.806c0 .69.56 1.25 1.25 1.25h1.25c.92 0 1.666-.746 1.666-1.667a5 5 0 0 0-4.64-4.987c.311 1.16.474 2.37.474 3.598ZM5.622 11.66a2.917 2.917 0 1 0-2.778-4.285 13.89 13.89 0 0 1 2.778 4.284Z" fill="#2E57DB"/></g><defs><clipPath id="aba"><path fill="#fff" d="M0 0h20v20H0z"/></clipPath></defs></symbol><symbol fill="none" viewBox="0 0 20 20" id="feed" xmlns="http://www.w3.org/2000/svg"><rect x="6" width="14" height="20" rx="1.667" fill="#3AE7BC"/><path fill-rule="evenodd" clip-rule="evenodd" d="m6.667 16.137-5.569-5.569A3.738 3.738 0 0 1 0 7.917a3.75 3.75 0 0 1 6.402-2.652l.265.265v10.607Z" fill="#FF7188"/><path fill-rule="evenodd" clip-rule="evenodd" d="m6.667 16.137 5.568-5.569a3.738 3.738 0 0 0 1.098-2.651 3.75 3.75 0 0 0-6.402-2.652l-.264.265v10.607Z" fill="#2E57DB"/></symbol><symbol fill="none" viewBox="0 0 20 20" id="files" xmlns="http://www.w3.org/2000/svg"><path fill-rule="evenodd" clip-rule="evenodd" d="M15.267 6.833a2.764 2.764 0 1 1 3.934 3.884l-7.568 7.665a2.847 2.847 0 0 1-1.335.761l-3.43.833a.625.625 0 0 1-.593-.164.581.581 0 0 1-.165-.57l.861-3.443c.124-.495.378-.947.736-1.31l7.56-7.656Z" fill="#FF7188"/><path d="M0 5.222C0 3.995.995 3 2.222 3H7.96c.697 0 1.354-.327 1.774-.883l.932-1.234A2.222 2.222 0 0 1 12.44 0h2.338C16.005 0 17 .995 17 2.222v11.556A2.222 2.222 0 0 1 14.778 16H2.222A2.222 2.222 0 0 1 0 13.778V5.222Z" fill="#3AE7BC"/><path fill-rule="evenodd" clip-rule="evenodd" d="M13.985 16H6.92l.05-.201c.124-.495.378-.947.736-1.31l7.56-7.656A2.753 2.753 0 0 1 17 6.02v6.925L13.985 16Z" fill="#2E57DB"/></symbol><symbol fill="none" viewBox="0 0 20 20" id="finance" xmlns="http://www.w3.org/2000/svg"><g clip-path="url(#aea)" fill-rule="evenodd" clip-rule="evenodd"><path d="M4.777 4.777a2.083 2.083 0 0 1 2.946 0l4.167 4.167a2.083 2.083 0 1 1-2.946 2.946l-.61-.61v6.637a2.083 2.083 0 1 1-4.167 0V11.28l-.61.61A2.083 2.083 0 1 1 .61 8.944l4.167-4.167Z" fill="#FF7188"/><path d="M20 4.167a4.167 4.167 0 1 1-8.333 0 4.167 4.167 0 0 1 8.333 0ZM19.078 20c.488 0 .922-.345.922-.833a4.167 4.167 0 0 0-8.333 0c0 .488.434.833.922.833h6.489ZM8.333 15.833a4.167 4.167 0 1 0 0-8.333 4.167 4.167 0 0 0 0 8.333Z" fill="#3AE7BC"/><path d="M8.333 15.833a4.167 4.167 0 1 1 4.102-4.9 2.083 2.083 0 0 1-3.492.957l-.61-.61v4.553Z" fill="#2E57DB"/></g><defs><clipPath id="aea"><path fill="#fff" d="M0 0h20v20H0z"/></clipPath></defs></symbol><symbol fill="none" viewBox="0 0 20 20" id="hr" xmlns="http://www.w3.org/2000/svg"><path fill-rule="evenodd" clip-rule="evenodd" d="M5 10a2.5 2.5 0 1 0 0-5 2.5 2.5 0 0 0 0 5Zm-5 6.667a5 5 0 1 1 10 0v1.666C10 19.253 9.254 20 8.333 20H1.667C.747 20 0 19.254 0 18.333v-1.666Z" fill="#FF7188"/><path fill-rule="evenodd" clip-rule="evenodd" d="M12.5 8.333A4.167 4.167 0 1 0 12.5 0a4.167 4.167 0 0 0 0 8.333ZM5 17.5a7.5 7.5 0 0 1 15 0v.833c0 .92-.746 1.667-1.667 1.667H6.667C5.747 20 5 19.254 5 18.333V17.5Z" fill="#3AE7BC"/><path fill-rule="evenodd" clip-rule="evenodd" d="M7.212 12.181A7.477 7.477 0 0 0 5 17.5V20h3.333c.92 0 1.667-.746 1.667-1.667v-1.666a5 5 0 0 0-2.788-4.486Z" fill="#2E57DB"/></symbol><symbol fill="none" viewBox="0 0 20 20" id="idea" xmlns="http://www.w3.org/2000/svg"><path d="M15 16.5c.317-1.499 1.34-2.72 2.467-3.759C18.935 11.39 20 9.54 20 7.5a7.5 7.5 0 0 0-15 0c0 2.04 1.065 3.89 2.533 5.241C8.659 13.78 9.683 15.001 10 16.5l.195 2.726a.833.833 0 0 0 .83.774h2.752a.833.833 0 0 0 .825-.715L15 16.5Z" fill="#3AE7BC"/><path d="M7.862 17.5c.159-1.251.974-2.292 1.916-3.13 1.094-.974 1.889-2.27 1.889-3.745C11.667 7.518 9.055 5 5.833 5 2.612 5 0 7.518 0 10.625c0 1.475.794 2.77 1.888 3.744.942.839 1.758 1.88 1.916 3.131l.178 1.75c.043.426.401.75.829.75h2.045a.833.833 0 0 0 .829-.75l.177-1.75Z" fill="#FF7188"/><path fill-rule="evenodd" clip-rule="evenodd" d="M9.311 14.815a9.03 9.03 0 0 1 .467-.446c1.094-.973 1.889-2.269 1.889-3.744C11.667 7.518 9.055 5 5.833 5c-.138 0-.275.005-.411.014A7.489 7.489 0 0 0 5 7.5c0 2.04 1.065 3.89 2.533 5.241.672.62 1.307 1.304 1.778 2.074Z" fill="#2E57DB"/></symbol><symbol fill="none" viewBox="0 0 20 20" id="knowledge" xmlns="http://www.w3.org/2000/svg"><path d="M13.333 9.167a5 5 0 0 0-5-5h-6.25C.933 4.167 0 5.099 0 6.25v7.667C0 15.067.933 16 2.083 16h9.033c.815 0 1.603.296 2.217.834V9.167Z" fill="#FF7188"/><path d="M6 3.333A3.333 3.333 0 0 1 9.333 0h8.584C19.067 0 20 .933 20 2.083v14.834c0 1.15-.933 2.083-2.083 2.083H9.722c-.798 0-1.579.23-2.25.66l-.188.12A.833.833 0 0 1 6 19.08V3.333Z" fill="#3AE7BC"/><path fill-rule="evenodd" clip-rule="evenodd" d="M6.07 4.167c-.046.27-.07.55-.07.833v11h4.422c.69 0 1.352.274 1.84.762a.52.52 0 0 0 .889-.374l-.11-8.93a3.333 3.333 0 0 0-3.333-3.291H6.069Z" fill="#2E57DB"/></symbol><symbol fill="none" viewBox="0 0 20 20" id="kpi" xmlns="http://www.w3.org/2000/svg"><path d="M6.667 9.28v9.053c0 .92.746 1.667 1.666 1.667h10c.92 0 1.667-.746 1.667-1.667V.917c0-.794-1.006-1.138-1.492-.51l-3.717 4.796a1.627 1.627 0 0 1-2.681-.16 1.627 1.627 0 0 0-2.72-.109L6.978 8.311c-.202.283-.31.621-.31.969Z" fill="#3AE7BC"/><path d="M0 16.198v2.135C0 19.253.746 20 1.667 20h12.5c.92 0 1.666-.746 1.666-1.667V9.264c0-.765-.944-1.125-1.454-.555l-4.342 4.853a1.667 1.667 0 0 1-2.523-.045l-1.638-1.966a1.667 1.667 0 0 0-2.57.011l-2.93 3.58C.134 15.44 0 15.814 0 16.199Z" fill="#FF7188"/><path fill-rule="evenodd" clip-rule="evenodd" d="M14.167 20c.92 0 1.666-.746 1.666-1.667V9.264c0-.764-.944-1.125-1.454-.555l-4.342 4.853a1.667 1.667 0 0 1-2.522-.045L6.667 12.5v5.833c0 .92.745 1.666 1.665 1.667h5.835Z" fill="#2E57DB"/></symbol><symbol fill="none" viewBox="0 0 20 20" id="project" xmlns="http://www.w3.org/2000/svg"><g clip-path="url(#aja)"><path d="M14.167 10.417a7.083 7.083 0 1 1-14.167 0 7.083 7.083 0 0 1 14.167 0Zm-10.48 0a3.396 3.396 0 1 0 6.792 0 3.396 3.396 0 0 0-6.791 0Z" fill="#FF7188"/><path d="M6.667 4.167A4.167 4.167 0 0 1 10.834 0h8.764c.398 0 .548.52.213.732a3.174 3.174 0 0 0-1.478 2.683v12.42a4.167 4.167 0 0 1-4.166 4.167H7.123l-1.535-.001a.417.417 0 0 1-.294-.712l.396-.396a3.334 3.334 0 0 0 .977-2.357V4.166Z" fill="#3AE7BC"/><path fill-rule="evenodd" clip-rule="evenodd" d="M6.749 3.341a4.187 4.187 0 0 0-.082.826v2.865a3.41 3.41 0 1 1 0 6.77v2.734c0 .322-.047.64-.136.943A7.083 7.083 0 1 0 6.749 3.34Z" fill="#2E57DB"/></g><defs><clipPath id="aja"><path fill="#fff" d="M0 0h20v20H0z"/></clipPath></defs></symbol><symbol fill="none" viewBox="0 0 20 20" id="reports" xmlns="http://www.w3.org/2000/svg"><path fill-rule="evenodd" clip-rule="evenodd" d="M3 4a2 2 0 0 0-2 2v12a2 2 0 1 0 4 0V6a2 2 0 0 0-2-2Zm6 8a2 2 0 0 0-2 2v4a2 2 0 1 0 4 0v-4a2 2 0 0 0-2-2Z" fill="#FF7188"/><path fill-rule="evenodd" clip-rule="evenodd" d="M11.5 17a8.5 8.5 0 1 0 0-17 8.5 8.5 0 0 0 0 17Zm0-5a3.5 3.5 0 1 0 0-7 3.5 3.5 0 0 0 0 7Z" fill="#3AE7BC"/><path fill-rule="evenodd" clip-rule="evenodd" d="M9.07 11.001a3.483 3.483 0 0 0 1.589.882c.215.319.341.703.341 1.117v3.985a8.498 8.498 0 0 1-4-1.272V13A2 2 0 0 1 9.07 11ZM5 13.981V6c0-.701-.36-1.318-.907-1.675A8.499 8.499 0 0 0 5 13.98Z" fill="#2E57DB"/></symbol><symbol fill="none" viewBox="0 0 20 20" id="rpa" xmlns="http://www.w3.org/2000/svg"><g clip-path="url(#ala)"><path d="M7 14A7.002 7.002 0 0 1 2.05 2.05 7 7 0 0 1 7 0v14ZM13 20a7.001 7.001 0 0 0 4.95-11.95A7 7 0 0 0 13 6v14Z" fill="#FF7188"/><rect x="3" y="3" width="14" height="14" rx="4" fill="#3AE7BC"/><path fill-rule="evenodd" clip-rule="evenodd" d="M7 14a7 7 0 0 1-4-1.255V7a4 4 0 0 1 4-4v11Zm10-6.744A6.998 6.998 0 0 0 13 6v11a4 4 0 0 0 4-4V7.256Z" fill="#2E57DB"/></g><defs><clipPath id="ala"><path fill="#fff" d="M0 0h20v20H0z"/></clipPath></defs></symbol><symbol fill="none" viewBox="0 0 20 20" id="salary" xmlns="http://www.w3.org/2000/svg"><path d="M0 8.055c0-1.227.995-2.222 2.222-2.222h13.056c1.227 0 2.222.995 2.222 2.222v9.723A2.222 2.222 0 0 1 15.278 20H2.222A2.222 2.222 0 0 1 0 17.778V8.055Z" fill="#3AE7BC"/><path d="M12.5 12.917A2.917 2.917 0 0 1 15.417 10h2.916c.92 0 1.667.746 1.667 1.667v2.5c0 .92-.746 1.666-1.667 1.666h-2.916a2.917 2.917 0 0 1-2.917-2.916Z" fill="#FF7188"/><path fill-rule="evenodd" clip-rule="evenodd" d="M17.5 10v5.833h-2.917a2.917 2.917 0 1 1 0-5.833H17.5Z" fill="#2E57DB"/><path fill-rule="evenodd" clip-rule="evenodd" d="M2.73 2.05A3.333 3.333 0 0 0 0 5.33V10c0 1.227.995 2.222 2.222 2.222H2.5V6.39c0-1.227.995-2.222 2.222-2.222h9.445c.46 0 .833-.373.833-.834V1.126c0-.694-.63-1.218-1.312-1.093L2.73 2.05Z" fill="#3AE7BC"/></symbol><symbol fill="none" viewBox="0 0 20 20" id="service" xmlns="http://www.w3.org/2000/svg"><path fill-rule="evenodd" clip-rule="evenodd" d="M11 18a9 9 0 1 0 0-18 9 9 0 0 0 0 18Zm0-5a4 4 0 1 0 0-8 4 4 0 0 0 0 8Z" fill="#3AE7BC"/><path d="M0 10.667C0 9.747.746 9 1.667 9H10c.92 0 1.667.746 1.667 1.667v5.666c0 .92-.746 1.667-1.667 1.667H6.222a2.5 2.5 0 0 0-1.578.561l-1.416 1.153a1.273 1.273 0 0 1-.804.286.424.424 0 0 1-.424-.424v-.687A.889.889 0 0 0 1.111 18 1.111 1.111 0 0 1 0 16.889v-6.222Z" fill="#FF7188"/><path fill-rule="evenodd" clip-rule="evenodd" d="M10.3 17.973a1.667 1.667 0 0 0 1.367-1.64v-3.388A4 4 0 0 1 7 9H2a9 9 0 0 0 8.3 8.973Z" fill="#2E57DB"/></symbol><symbol fill="none" viewBox="0 0 20 20" id="tasks" xmlns="http://www.w3.org/2000/svg"><g clip-path="url(#aoa)" fill-rule="evenodd" clip-rule="evenodd"><path d="M15.97 4.845c.93.904.93 2.37 0 3.273l-8.096 7.87a2.43 2.43 0 0 1-3.367 0l-3.81-3.703a2.27 2.27 0 0 1 0-3.274 2.43 2.43 0 0 1 3.368 0l2.125 2.067 6.412-6.233a2.43 2.43 0 0 1 3.367 0Z" fill="#FF7188"/><path d="M6.667 0C5.747 0 5 .746 5 1.667V7.5c0 .92.746 1.667 1.667 1.667h11.666C19.253 9.167 20 8.42 20 7.5V1.667C20 .747 19.254 0 18.333 0H6.667Zm0 10.833C5.747 10.833 5 11.58 5 12.5v5.833C5 19.253 5.746 20 6.667 20h11.666c.92 0 1.667-.746 1.667-1.667V12.5c0-.92-.746-1.667-1.667-1.667H6.667Z" fill="#3AE7BC"/><path d="m14.891 9.167 1.078-1.049a2.27 2.27 0 0 0 0-3.273 2.43 2.43 0 0 0-3.367 0L8.157 9.167h6.734Zm-8.834 1.781.133.13.234-.227c.08-.012.16-.018.243-.018h6.51L7.874 15.99A2.433 2.433 0 0 1 5 16.357V12.5c0-.705.438-1.308 1.057-1.552Z" fill="#2E57DB"/></g><defs><clipPath id="aoa"><path fill="#fff" d="M0 0h20v20H0z"/></clipPath></defs></symbol><symbol fill="none" viewBox="0 0 20 20" id="workspaces" xmlns="http://www.w3.org/2000/svg"><path d="M7 6.5a6.5 6.5 0 1 1 13 0 6.5 6.5 0 0 1-6.5 6.5H7V6.5Z" fill="#3AE7BC"/><path d="M13 13.5a6.5 6.5 0 0 1-13 0A6.5 6.5 0 0 1 6.5 7H13v6.5Z" fill="#FF7188"/><path fill-rule="evenodd" clip-rule="evenodd" d="M13 13H7V7h6v6Z" fill="#2E57DB"/></symbol></svg>