<svg width="123.058350" height="50.000000" viewBox="0 0 123.058 50" fill="none" xmlns="http://www.w3.org/2000/svg" xmlns:xlink="http://www.w3.org/1999/xlink">
	<defs>
		<clipPath id="clip2_5329">
			<rect id="ph:meta-logo-bold" rx="-0.076487" width="19.427673" height="19.427673" transform="translate(8.732737 15.286203)" fill="white" fill-opacity="0"/>
		</clipPath>
		<clipPath id="clip2_5333">
			<rect id="Logo + Text" rx="-0.121359" width="122.815529" height="49.757282" transform="translate(0.121359 0.121359)" fill="white" fill-opacity="0"/>
		</clipPath>
	</defs>
	<g clip-path="url(#clip2_5333)">
		<rect id="Rectangle 1142" x="0.242676" y="6.796143" rx="18.203882" width="36.407764" height="36.407764" fill="#8D75F5" fill-opacity="1.000000"/>
		<rect id="ph:meta-logo-bold" rx="-0.076487" width="19.427673" height="19.427673" transform="translate(8.732737 15.286203)" fill="#FFFFFF" fill-opacity="0"/>
		<g clip-path="url(#clip2_5329)">
			<path id="Vector" d="M27.31 26.62C27.31 27.91 27.06 29.02 26.57 29.83C25.94 30.87 24.97 31.42 23.75 31.42C21.43 31.42 19.87 28.51 18.22 25.43C17.02 23.19 15.54 20.41 14.31 20.41C13.72 20.41 13 21.12 12.43 22.28C11.77 23.63 11.42 25.12 11.4 26.62C11.4 27.57 11.58 28.37 11.89 28.88C12.18 29.36 12.57 29.58 13.13 29.58C14.18 29.58 15.47 27.37 15.9 26.64C16.02 26.43 16.22 26.28 16.46 26.21C16.69 26.15 16.94 26.19 17.15 26.31C17.36 26.43 17.52 26.63 17.58 26.87C17.64 27.1 17.61 27.35 17.48 27.56C16.8 28.73 16.22 29.55 15.65 30.15C14.83 31 14.01 31.42 13.13 31.42C11.92 31.42 10.94 30.87 10.32 29.83C9.83 29.02 9.57 27.91 9.57 26.62C9.57 23.26 11.37 18.57 14.31 18.57C16.63 18.57 18.19 21.48 19.84 24.56C21.04 26.8 22.53 29.58 23.75 29.58C24.31 29.58 24.71 29.36 25 28.88C25.31 28.37 25.48 27.57 25.48 26.62C25.46 25.12 25.11 23.63 24.46 22.28C23.89 21.12 23.16 20.41 22.57 20.41C22.13 20.41 21.61 20.79 21 21.54C20.85 21.73 20.63 21.85 20.39 21.88C20.15 21.91 19.9 21.84 19.71 21.68C19.52 21.53 19.4 21.31 19.38 21.07C19.35 20.83 19.42 20.58 19.57 20.39C20.55 19.17 21.54 18.57 22.57 18.57C23.92 18.57 25.17 19.6 26.1 21.46C26.88 23.07 27.3 24.83 27.31 26.62Z" fill="#FFFFFF" fill-opacity="1.000000" fill-rule="nonzero"/>
		</g>
		<path id="HRMS" d="M113 35.18C113.91 35.46 114.89 35.6 115.95 35.6C117.42 35.6 118.68 35.35 119.74 34.87C120.8 34.37 121.61 33.66 122.19 32.75C122.77 31.84 123.05 30.77 123.05 29.52C123.05 28.86 122.91 28.23 122.61 27.66C122.33 27.08 121.91 26.56 121.35 26.1C120.8 25.63 120.12 25.23 119.32 24.9C118.52 24.55 117.61 24.26 116.59 24.04C115.87 23.89 115.25 23.72 114.73 23.54C114.21 23.33 113.79 23.11 113.47 22.87C113.17 22.61 112.95 22.32 112.8 22Q112.77 21.93 112.75 21.86Q112.58 21.42 112.58 20.92C112.58 20.38 112.73 19.91 113.03 19.52C113.34 19.12 113.77 18.8 114.31 18.58C114.85 18.35 115.48 18.24 116.2 18.24C116.83 18.24 117.43 18.35 117.98 18.58C118.54 18.78 119.05 19.1 119.52 19.52C119.98 19.93 120.4 20.44 120.77 21.06L122.89 18.97C122.46 18.22 121.92 17.6 121.27 17.1C120.62 16.58 119.88 16.19 119.04 15.93C118.21 15.67 117.29 15.54 116.29 15.54C115.34 15.54 114.46 15.68 113.64 15.96C112.82 16.22 112.11 16.6 111.49 17.1Q110.98 17.52 110.58 18.03Q110.3 18.41 110.07 18.83Q109.92 19.13 109.82 19.44Q109.57 20.18 109.57 21C109.57 21.8 109.69 22.52 109.93 23.17C110.18 23.8 110.55 24.37 111.05 24.87C111.55 25.37 112.17 25.79 112.91 26.13C113.66 26.46 114.53 26.73 115.53 26.93C116.16 27.04 116.72 27.18 117.2 27.35C117.69 27.5 118.1 27.68 118.46 27.88C118.83 28.08 119.13 28.31 119.35 28.55C119.59 28.79 119.77 29.06 119.88 29.36C119.99 29.65 120.05 29.97 120.05 30.3C120.05 30.8 119.88 31.25 119.54 31.64C119.21 32.03 118.75 32.34 118.18 32.56C117.6 32.78 116.96 32.89 116.26 32.89C115.11 32.89 114.11 32.64 113.28 32.14C112.44 31.64 111.57 30.74 110.66 29.44L108.6 31.81C109.17 32.64 109.82 33.35 110.55 33.92C111.29 34.48 112.11 34.9 113 35.18ZM45.31 15.82L45.31 35.32L48.31 35.32L48.31 27.04L58.03 27.04L58.03 35.32L61.04 35.32L61.04 15.82L58.03 15.82L58.03 24.15L48.31 24.15L48.31 15.82L45.31 15.82ZM66.49 15.82L66.49 35.32L69.5 35.32L69.5 27.99L73.96 27.99L78.08 35.32L81.73 35.35L77.2 27.52C77.44 27.43 77.66 27.31 77.89 27.18C78.82 26.63 79.56 25.89 80.11 24.98C80.67 24.07 80.95 23.09 80.95 22.03C80.95 20.86 80.67 19.81 80.11 18.88C79.56 17.94 78.81 17.19 77.86 16.66Q77.3 16.32 76.7 16.12Q75.8 15.82 74.79 15.82L66.49 15.82ZM85.86 35.32L85.86 15.82L88.81 15.82L95.2 26.22L101.68 15.82L104.47 15.82L104.47 35.32L101.46 35.32L101.46 27.32C101.46 25.65 101.5 24.15 101.57 22.81Q101.64 21.84 101.74 20.88L96.03 29.72L94.19 29.72L88.59 20.89Q88.68 21.77 88.73 22.67C88.82 23.97 88.87 25.52 88.87 27.32L88.87 35.32L85.86 35.32ZM75.07 25.09L69.5 25.09L69.5 18.72L74.29 18.72Q75.32 18.72 76.13 19.13C76.69 19.41 77.12 19.8 77.41 20.3C77.73 20.79 77.89 21.35 77.89 22C77.89 22.58 77.77 23.11 77.52 23.59C77.28 24.06 76.95 24.43 76.52 24.71C76.09 24.97 75.61 25.09 75.07 25.09Z" fill="#16151C" fill-opacity="1.000000" fill-rule="evenodd"/>
	</g>
</svg>
